Bodoni-48-Fatface.ufo
<glyph name="dollar" format="2">
  <advance width="1269"/>
  <unicode hex="0024"/>
  <outline>
    <contour>
      <point x="650" y="1660" type="line"/>
      <point x="661" y="1660" type="line"/>
      <point x="661" y="-160" type="line"/>
      <point x="650" y="-160" type="line"/>
    </contour>
    <contour>
      <point x="512" y="1660" type="line"/>
      <point x="522" y="1660" type="line"/>
      <point x="522" y="-160" type="line"/>
      <point x="512" y="-160" type="line"/>
    </contour>
    <contour>
      <point x="1083" y="1285" type="curve"/>
      <point x="1028" y="1425"/>
      <point x="821" y="1504"/>
      <point x="648" y="1504" type="curve" smooth="yes"/>
      <point x="516" y="1504"/>
      <point x="380" y="1442"/>
      <point x="380" y="1307" type="curve" smooth="yes"/>
      <point x="380" y="963"/>
      <point x="1190" y="1060"/>
      <point x="1190" y="460" type="curve" smooth="yes"/>
      <point x="1190" y="180"/>
      <point x="972" y="-30"/>
      <point x="630" y="-30" type="curve" smooth="yes"/>
      <point x="238" y="-30"/>
      <point x="50" y="160"/>
      <point x="50" y="330" type="curve" smooth="yes"/>
      <point x="50" y="462"/>
      <point x="132" y="554"/>
      <point x="260" y="554" type="curve" smooth="yes"/>
      <point x="360" y="554"/>
      <point x="448" y="470"/>
      <point x="448" y="342" type="curve" smooth="yes"/>
      <point x="448" y="222"/>
      <point x="334" y="172"/>
      <point x="246" y="172" type="curve" smooth="yes"/>
      <point x="163" y="172"/>
      <point x="97" y="214"/>
      <point x="68" y="289" type="curve"/>
      <point x="95" y="139"/>
      <point x="283" y="-17"/>
      <point x="610" y="-17" type="curve" smooth="yes"/>
      <point x="822" y="-17"/>
      <point x="910" y="78"/>
      <point x="910" y="233" type="curve" smooth="yes"/>
      <point x="910" y="617"/>
      <point x="100" y="450"/>
      <point x="100" y="1090" type="curve" smooth="yes"/>
      <point x="100" y="1350"/>
      <point x="372" y="1520"/>
      <point x="614" y="1520" type="curve" smooth="yes"/>
      <point x="850" y="1520"/>
      <point x="1110" y="1412"/>
      <point x="1110" y="1210" type="curve" smooth="yes"/>
      <point x="1110" y="1078"/>
      <point x="1038" y="1006"/>
      <point x="910" y="1006" type="curve" smooth="yes"/>
      <point x="810" y="1006"/>
      <point x="722" y="1066"/>
      <point x="722" y="1188" type="curve" smooth="yes"/>
      <point x="722" y="1302"/>
      <point x="817" y="1368"/>
      <point x="905" y="1368" type="curve" smooth="yes"/>
      <point x="978" y="1368"/>
      <point x="1040" y="1346"/>
    </contour>
  </outline>
</glyph>
<glyph name="percent" format="2">
  <advance width="4258"/>
  <unicode hex="0025"/>
  <outline>
    <contour>
      <point x="2970" y="860" type="curve" smooth="yes"/>
      <point x="2970" y="162"/>
      <point x="3036" y="-21"/>
      <point x="3134" y="-21" type="curve" smooth="yes"/>
      <point x="3232" y="-21"/>
      <point x="3298" y="162"/>
      <point x="3298" y="860" type="curve" smooth="yes"/>
      <point x="3298" y="1558"/>
      <point x="3232" y="1743"/>
      <point x="3134" y="1743" type="curve" smooth="yes"/>
      <point x="3036" y="1743"/>
      <point x="2970" y="1558"/>
    </contour>
    <contour>
      <point x="2150" y="860" type="curve" smooth="yes"/>
      <point x="2150" y="1446"/>
      <point x="2672" y="1762"/>
      <point x="3134" y="1762" type="curve" smooth="yes"/>
      <point x="3596" y="1762"/>
      <point x="4116" y="1446"/>
      <point x="4116" y="860" type="curve" smooth="yes"/>
      <point x="4116" y="274"/>
      <point x="3514" y="-40"/>
      <point x="3134" y="-40" type="curve" smooth="yes"/>
      <point x="2672" y="-40"/>
      <point x="2150" y="274"/>
    </contour>
    <contour>
      <point x="3199" y="3072" type="line"/>
      <point x="3219" y="3072" type="line"/>
      <point x="1061" y="0" type="line"/>
      <point x="1041" y="0" type="line"/>
    </contour>
    <contour>
      <point x="962" y="2212" type="curve" smooth="yes"/>
      <point x="962" y="1514"/>
      <point x="1028" y="1329"/>
      <point x="1126" y="1329" type="curve" smooth="yes"/>
      <point x="1224" y="1329"/>
      <point x="1290" y="1514"/>
      <point x="1290" y="2212" type="curve" smooth="yes"/>
      <point x="1290" y="2910"/>
      <point x="1224" y="3093"/>
      <point x="1126" y="3093" type="curve" smooth="yes"/>
      <point x="1028" y="3093"/>
      <point x="962" y="2910"/>
    </contour>
    <contour>
      <point x="144" y="2212" type="curve" smooth="yes"/>
      <point x="144" y="2798"/>
      <point x="664" y="3112"/>
      <point x="1126" y="3112" type="curve" smooth="yes"/>
      <point x="1588" y="3112"/>
      <point x="2110" y="2798"/>
      <point x="2110" y="2212" type="curve" smooth="yes"/>
      <point x="2110" y="1626"/>
      <point x="1506" y="1310"/>
      <point x="1126" y="1310" type="curve" smooth="yes"/>
      <point x="664" y="1310"/>
      <point x="144" y="1626"/>
    </contour>
  </outline>
</glyph>
<glyph name="ampersand" format="2">
  <advance width="3764"/>
  <unicode hex="0026"/>
  <outline>
    <contour>
      <point x="1875" y="2037" type="curve"/>
      <point x="1868" y="2049" type="line"/>
      <point x="1905" y="2086"/>
      <point x="1970" y="2129"/>
      <point x="1970" y="2642" type="curve" smooth="yes"/>
      <point x="1970" y="2912"/>
      <point x="1930" y="3095"/>
      <point x="1778" y="3095" type="curve" smooth="yes"/>
      <point x="1646" y="3095"/>
      <point x="1582" y="2916"/>
      <point x="1582" y="2744" type="curve" smooth="yes"/>
      <point x="1582" y="2560"/>
      <point x="1724" y="2270"/>
      <point x="1900" y="2008" type="curve" smooth="yes"/>
      <point x="3200" y="19" type="line"/>
      <point x="3682" y="19" type="line"/>
      <point x="3682" y="0" type="line"/>
      <point x="2232" y="0" type="line"/>
      <point x="876" y="2008" type="line" smooth="yes"/>
      <point x="770" y="2164"/>
      <point x="688" y="2366"/>
      <point x="688" y="2510" type="curve" smooth="yes"/>
      <point x="688" y="2878"/>
      <point x="1118" y="3112"/>
      <point x="1798" y="3112" type="curve" smooth="yes"/>
      <point x="2442" y="3112"/>
      <point x="2806" y="2936"/>
      <point x="2806" y="2650" type="curve" smooth="yes"/>
      <point x="2806" y="2335"/>
      <point x="2371" y="2148"/>
    </contour>
    <contour>
      <point x="1071" y="1731" type="curve"/>
      <point x="1080" y="1718" type="line"/>
      <point x="1039" y="1691"/>
      <point x="1017" y="1573"/>
      <point x="1017" y="1362" type="curve" smooth="yes"/>
      <point x="1017" y="740"/>
      <point x="1242" y="106"/>
      <point x="1758" y="106" type="curve" smooth="yes"/>
      <point x="2360" y="106"/>
      <point x="3004" y="891"/>
      <point x="3091" y="1881" type="curve"/>
      <point x="3110" y="1881" type="line"/>
      <point x="3023" y="969"/>
      <point x="2466" y="-40"/>
      <point x="1224" y="-40" type="curve" smooth="yes"/>
      <point x="474" y="-40"/>
      <point x="154" y="316"/>
      <point x="154" y="738" type="curve" smooth="yes"/>
      <point x="154" y="1429"/>
      <point x="873" y="1644"/>
    </contour>
    <contour>
      <point x="2556" y="1884" type="line"/>
      <point x="3538" y="1884" type="line"/>
      <point x="3538" y="1865" type="line"/>
      <point x="2556" y="1865" type="line"/>
    </contour>
  </outline>
</glyph>
<glyph name="parenleft" format="2">
  <advance width="764"/>
  <unicode hex="0028"/>
  <outline>
    <contour>
      <point x="730" y="-334" type="curve"/>
      <point x="726" y="-340" type="line"/>
      <point x="400" y="-200"/>
      <point x="130" y="184"/>
      <point x="130" y="650" type="curve" smooth="yes"/>
      <point x="130" y="1116"/>
      <point x="400" y="1460"/>
      <point x="726" y="1600" type="curve"/>
      <point x="730" y="1594" type="line"/>
      <point x="582" y="1494"/>
      <point x="560" y="1034"/>
      <point x="560" y="650" type="curve" smooth="yes"/>
      <point x="560" y="266"/>
      <point x="582" y="-234"/>
    </contour>
  </outline>
</glyph>
<glyph name="one" format="2">
  <advance width="1109"/>
  <unicode hex="0031"/>
  <outline>
    <contour>
      <point x="100" y="9" type="line"/>
      <point x="1010" y="9" type="line"/>
      <point x="1010" y="0" type="line"/>
      <point x="100" y="0" type="line"/>
    </contour>
    <contour>
      <point x="134" y="1500" type="line"/>
      <point x="790" y="1500" type="line"/>
      <point x="790" y="5" type="line"/>
      <point x="360" y="5" type="line"/>
      <point x="360" y="1491" type="line"/>
      <point x="134" y="1491" type="line"/>
    </contour>
  </outline>
</glyph>
<glyph name="two" format="2">
  <advance width="1299"/>
  <unicode hex="0032"/>
  <outline>
    <contour>
      <point x="1230" y="0" type="line"/>
      <point x="80" y="0" type="line"/>
      <point x="80" y="270" type="line"/>
      <point x="492" y="530" type="line" smooth="yes"/>
      <point x="662" y="640"/>
      <point x="748" y="772"/>
      <point x="748" y="1020" type="curve" smooth="yes"/>
      <point x="748" y="1288"/>
      <point x="639" y="1464"/>
      <point x="483" y="1464" type="curve" smooth="yes"/>
      <point x="281" y="1464"/>
      <point x="110" y="1297"/>
      <point x="109" y="1103" type="curve"/>
      <point x="140" y="1207"/>
      <point x="230" y="1284"/>
      <point x="341" y="1284" type="curve" smooth="yes"/>
      <point x="496" y="1284"/>
      <point x="596" y="1182"/>
      <point x="596" y="1052" type="curve" smooth="yes"/>
      <point x="596" y="912"/>
      <point x="460" y="814"/>
      <point x="330" y="814" type="curve" smooth="yes"/>
      <point x="200" y="814"/>
      <point x="98" y="914"/>
      <point x="98" y="1098" type="curve" smooth="yes"/>
      <point x="98" y="1332"/>
      <point x="316" y="1520"/>
      <point x="650" y="1520" type="curve" smooth="yes"/>
      <point x="992" y="1520"/>
      <point x="1188" y="1360"/>
      <point x="1188" y="1140" type="curve" smooth="yes"/>
      <point x="1188" y="880"/>
      <point x="898" y="766"/>
      <point x="710" y="650" type="curve" smooth="yes"/>
      <point x="338" y="420" type="line"/>
      <point x="1220" y="420" type="line"/>
      <point x="1220" y="570" type="line"/>
      <point x="1230" y="570" type="line"/>
    </contour>
  </outline>
</glyph>
<glyph name="three" format="2">
  <advance width="1241"/>
  <unicode hex="0033"/>
  <outline>
    <contour>
      <point x="1162" y="420" type="curve" smooth="yes"/>
      <point x="1162" y="140"/>
      <point x="884" y="-20"/>
      <point x="562" y="-20" type="curve" smooth="yes"/>
      <point x="218" y="-20"/>
      <point x="50" y="188"/>
      <point x="50" y="372" type="curve" smooth="yes"/>
      <point x="50" y="514"/>
      <point x="150" y="612"/>
      <point x="280" y="612" type="curve" smooth="yes"/>
      <point x="400" y="612"/>
      <point x="488" y="524"/>
      <point x="488" y="392" type="curve" smooth="yes"/>
      <point x="488" y="268"/>
      <point x="382" y="180"/>
      <point x="264" y="180" type="curve" smooth="yes"/>
      <point x="185" y="180"/>
      <point x="127" y="206"/>
      <point x="85" y="259" type="curve"/>
      <point x="125" y="139"/>
      <point x="272" y="3"/>
      <point x="499" y="3" type="curve" smooth="yes"/>
      <point x="697" y="3"/>
      <point x="720" y="172"/>
      <point x="720" y="420" type="curve" smooth="yes"/>
      <point x="720" y="628"/>
      <point x="664" y="806"/>
      <point x="426" y="806" type="curve"/>
      <point x="426" y="813" type="line"/>
      <point x="948" y="813"/>
      <point x="1162" y="660"/>
    </contour>
    <contour>
      <point x="426" y="807" type="curve"/>
      <point x="426" y="814" type="line"/>
      <point x="644" y="814"/>
      <point x="660" y="1034"/>
      <point x="660" y="1182" type="curve" smooth="yes"/>
      <point x="660" y="1350"/>
      <point x="627" y="1497"/>
      <point x="509" y="1497" type="curve" smooth="yes"/>
      <point x="374" y="1497"/>
      <point x="227" y="1409"/>
      <point x="177" y="1328" type="curve"/>
      <point x="225" y="1381"/>
      <point x="288" y="1398"/>
      <point x="344" y="1398" type="curve" smooth="yes"/>
      <point x="442" y="1398"/>
      <point x="538" y="1318"/>
      <point x="538" y="1198" type="curve" smooth="yes"/>
      <point x="538" y="1068"/>
      <point x="434" y="976"/>
      <point x="324" y="976" type="curve" smooth="yes"/>
      <point x="204" y="976"/>
      <point x="110" y="1048"/>
      <point x="110" y="1180" type="curve" smooth="yes"/>
      <point x="110" y="1384"/>
      <point x="358" y="1518"/>
      <point x="562" y="1518" type="curve" smooth="yes"/>
      <point x="864" y="1518"/>
      <point x="1102" y="1382"/>
      <point x="1102" y="1162" type="curve" smooth="yes"/>
      <point x="1102" y="962"/>
      <point x="928" y="807"/>
    </contour>
  </outline>
</glyph>
<glyph name="four" format="2">
  <advance width="1369"/>
  <unicode hex="0034"/>
  <outline>
    <contour>
      <point x="1280" y="9" type="line"/>
      <point x="1280" y="0" type="line"/>
      <point x="510" y="0" type="line"/>
      <point x="510" y="9" type="line"/>
      <point x="700" y="9" type="line"/>
      <point x="700" y="1298" type="line"/>
      <point x="88" y="435" type="line"/>
      <point x="1350" y="435" type="line"/>
      <point x="1350" y="425" type="line"/>
      <point x="70" y="425" type="line"/>
      <point x="830" y="1500" type="line"/>
      <point x="1130" y="1500" type="line"/>
      <point x="1130" y="9" type="line"/>
    </contour>
  </outline>
</glyph>
<glyph name="five" format="2">
  <advance width="1139"/>
  <unicode hex="0035"/>
  <outline>
    <contour>
      <point x="1010" y="1080" type="line"/>
      <point x="103" y="1080" type="line"/>
      <point x="103" y="674" type="line"/>
      <point x="94" y="674" type="line"/>
      <point x="94" y="1500" type="line"/>
      <point x="1000" y="1500" type="line"/>
      <point x="1000" y="1610" type="line"/>
      <point x="1010" y="1610" type="line"/>
    </contour>
    <contour>
      <point x="26" y="170" type="curve"/>
      <point x="67" y="75"/>
      <point x="216" y="-2"/>
      <point x="369" y="-2" type="curve" smooth="yes"/>
      <point x="547" y="-2"/>
      <point x="630" y="162"/>
      <point x="630" y="430" type="curve" smooth="yes"/>
      <point x="630" y="738"/>
      <point x="575" y="855"/>
      <point x="417" y="855" type="curve" smooth="yes"/>
      <point x="285" y="855"/>
      <point x="158" y="782"/>
      <point x="107" y="674" type="curve"/>
      <point x="99" y="674" type="line"/>
      <point x="151" y="788"/>
      <point x="282" y="880"/>
      <point x="504" y="880" type="curve" smooth="yes"/>
      <point x="846" y="880"/>
      <point x="1080" y="730"/>
      <point x="1080" y="430" type="curve" smooth="yes"/>
      <point x="1080" y="150"/>
      <point x="794" y="-20"/>
      <point x="432" y="-20" type="curve" smooth="yes"/>
      <point x="208" y="-20"/>
      <point x="-20" y="74"/>
      <point x="-20" y="298" type="curve" smooth="yes"/>
      <point x="-20" y="440"/>
      <point x="84" y="542"/>
      <point x="214" y="542" type="curve" smooth="yes"/>
      <point x="344" y="542"/>
      <point x="448" y="460"/>
      <point x="448" y="320" type="curve" smooth="yes"/>
      <point x="448" y="190"/>
      <point x="332" y="80"/>
      <point x="197" y="80" type="curve" smooth="yes"/>
      <point x="124" y="80"/>
      <point x="66" y="114"/>
    </contour>
  </outline>
</glyph>
<glyph name="six" format="2">
  <advance width="1319"/>
  <unicode hex="0036"/>
  <outline>
    <contour>
      <point x="800" y="500" type="curve" smooth="yes"/>
      <point x="800" y="868"/>
      <point x="763" y="951"/>
      <point x="685" y="951" type="curve" smooth="yes"/>
      <point x="587" y="951"/>
      <point x="560" y="860"/>
      <point x="560" y="560" type="curve"/>
      <point x="552" y="560" type="line"/>
      <point x="552" y="848"/>
      <point x="560" y="990"/>
      <point x="762" y="990" type="curve" smooth="yes"/>
      <point x="1004" y="990"/>
      <point x="1260" y="840"/>
      <point x="1260" y="500" type="curve" smooth="yes"/>
      <point x="1260" y="200"/>
      <point x="1030" y="-20"/>
      <point x="688" y="-20" type="curve" smooth="yes"/>
      <point x="346" y="-20"/>
      <point x="100" y="200"/>
      <point x="100" y="620" type="curve" smooth="yes"/>
      <point x="100" y="1106"/>
      <point x="504" y="1520"/>
      <point x="1110" y="1520" type="curve"/>
      <point x="1110" y="1511" type="line"/>
      <point x="742" y="1511"/>
      <point x="558" y="1101"/>
      <point x="558" y="688" type="curve"/>
      <point x="560" y="560" type="line"/>
      <point x="560" y="192"/>
      <point x="596" y="-10"/>
      <point x="694" y="-10" type="curve" smooth="yes"/>
      <point x="792" y="-10"/>
      <point x="800" y="172"/>
    </contour>
  </outline>
</glyph>
<glyph name="seven" format="2">
  <advance width="1149"/>
  <unicode hex="0037"/>
  <outline>
    <contour>
      <point x="256" y="212" type="curve" smooth="yes"/>
      <point x="256" y="370"/>
      <point x="492" y="539"/>
      <point x="647" y="756" type="curve" smooth="yes"/>
      <point x="706" y="838"/>
      <point x="749" y="896"/>
      <point x="856" y="1070" type="curve"/>
      <point x="89" y="1070" type="line"/>
      <point x="89" y="920" type="line"/>
      <point x="80" y="920" type="line"/>
      <point x="80" y="1500" type="line"/>
      <point x="1130" y="1500" type="line"/>
      <point x="1130" y="1500"/>
      <point x="853" y="1024"/>
      <point x="679" y="776" type="curve" smooth="yes"/>
      <point x="573" y="624"/>
      <point x="546" y="595"/>
      <point x="546" y="544" type="curve" smooth="yes"/>
      <point x="546" y="438"/>
      <point x="756" y="408"/>
      <point x="756" y="216" type="curve" smooth="yes"/>
      <point x="756" y="82"/>
      <point x="656" y="-20"/>
      <point x="508" y="-20" type="curve" smooth="yes"/>
      <point x="370" y="-20"/>
      <point x="256" y="54"/>
    </contour>
  </outline>
</glyph>
<glyph name="less" format="2">
  <advance width="2292"/>
  <unicode hex="003C"/>
  <outline>
    <contour>
      <point x="246" y="1582" type="line"/>
      <point x="246" y="1600" type="line"/>
      <point x="2048" y="2461" type="line"/>
      <point x="2048" y="2442" type="line"/>
    </contour>
    <contour>
      <point x="246" y="1576" type="line"/>
      <point x="246" y="1594" type="line"/>
      <point x="2048" y="732" type="line"/>
      <point x="2048" y="713" type="line"/>
    </contour>
  </outline>
</glyph>
<glyph name="question" format="2">
  <advance width="1239"/>
  <unicode hex="003F"/>
  <outline>
    <contour>
      <point x="509" y="733" type="line"/>
      <point x="663" y="795"/>
      <point x="698" y="934"/>
      <point x="698" y="1120" type="curve" smooth="yes"/>
      <point x="698" y="1308"/>
      <point x="687" y="1498"/>
      <point x="529" y="1498" type="curve" smooth="yes"/>
      <point x="340" y="1498"/>
      <point x="169" y="1342"/>
      <point x="148" y="1223" type="curve"/>
      <point x="163" y="1259"/>
      <point x="237" y="1320"/>
      <point x="333" y="1320" type="curve" smooth="yes"/>
      <point x="451" y="1320"/>
      <point x="548" y="1250"/>
      <point x="548" y="1130" type="curve" smooth="yes"/>
      <point x="548" y="1000"/>
      <point x="464" y="918"/>
      <point x="334" y="918" type="curve" smooth="yes"/>
      <point x="194" y="918"/>
      <point x="120" y="1010"/>
      <point x="120" y="1142" type="curve" smooth="yes"/>
      <point x="120" y="1326"/>
      <point x="308" y="1520"/>
      <point x="612" y="1520" type="curve" smooth="yes"/>
      <point x="934" y="1520"/>
      <point x="1140" y="1360"/>
      <point x="1140" y="1120" type="curve" smooth="yes"/>
      <point x="1140" y="890"/>
      <point x="901" y="746"/>
      <point x="519" y="728" type="curve"/>
      <point x="519" y="558" type="line"/>
      <point x="509" y="558" type="line"/>
    </contour>
    <component base="period" xOffset="258"/>
  </outline>
</glyph>
<glyph name="at" format="2">
  <advance width="2019"/>
  <unicode hex="0040"/>
  <outline>
    <contour>
      <point x="1090" y="736" type="curve" smooth="yes"/>
      <point x="1090" y="412"/>
      <point x="969" y="140"/>
      <point x="709" y="140" type="curve" smooth="yes"/>
      <point x="530" y="140"/>
      <point x="408" y="252"/>
      <point x="408" y="460" type="curve" smooth="yes"/>
      <point x="408" y="760"/>
      <point x="615" y="1058"/>
      <point x="858" y="1058" type="curve" smooth="yes"/>
      <point x="1059" y="1058"/>
      <point x="1090" y="900"/>
    </contour>
    <contour>
      <point x="1078" y="692" type="curve" smooth="yes"/>
      <point x="1078" y="776"/>
      <point x="1077" y="923"/>
      <point x="1033" y="923" type="curve" smooth="yes"/>
      <point x="967" y="923"/>
      <point x="850" y="730"/>
      <point x="850" y="482" type="curve" smooth="yes"/>
      <point x="850" y="348"/>
      <point x="880" y="276"/>
      <point x="928" y="276" type="curve" smooth="yes"/>
      <point x="990" y="276"/>
      <point x="1078" y="473"/>
    </contour>
    <contour>
      <point x="1040" y="420" type="curve" smooth="yes"/>
      <point x="1184" y="1040" type="line"/>
      <point x="1604" y="1040" type="line"/>
      <point x="1453" y="392" type="line" smooth="yes"/>
      <point x="1431" y="294"/>
      <point x="1401" y="188"/>
      <point x="1493" y="188" type="curve" smooth="yes"/>
      <point x="1676" y="188"/>
      <point x="1901" y="433"/>
      <point x="1901" y="802" type="curve" smooth="yes"/>
      <point x="1901" y="1162"/>
      <point x="1671" y="1571"/>
      <point x="1169" y="1571" type="curve" smooth="yes"/>
      <point x="594" y="1571"/>
      <point x="120" y="1043"/>
      <point x="120" y="422" type="curve" smooth="yes"/>
      <point x="120" y="-202"/>
      <point x="478" y="-418"/>
      <point x="838" y="-418" type="curve" smooth="yes"/>
      <point x="1162" y="-418"/>
      <point x="1396" y="-318"/>
      <point x="1563" y="-123" type="curve"/>
      <point x="1570" y="-128" type="line"/>
      <point x="1402" y="-324"/>
      <point x="1164" y="-428"/>
      <point x="838" y="-428" type="curve" smooth="yes"/>
      <point x="472" y="-428"/>
      <point x="110" y="-207"/>
      <point x="110" y="422" type="curve" smooth="yes"/>
      <point x="110" y="1048"/>
      <point x="584" y="1580"/>
      <point x="1170" y="1580" type="curve" smooth="yes"/>
      <point x="1676" y="1580"/>
      <point x="1910" y="1168"/>
      <point x="1910" y="802" type="curve" smooth="yes"/>
      <point x="1910" y="462"/>
      <point x="1724" y="136"/>
      <point x="1322" y="136" type="curve" smooth="yes"/>
      <point x="1024" y="136"/>
      <point x="1012" y="296"/>
    </contour>
  </outline>
</glyph>
<glyph name="C" format="2">
  <advance width="1469"/>
  <unicode hex="0043"/>
  <outline>
    <contour>
      <point x="1362" y="1500" type="line"/>
      <point x="1370" y="1500" type="line"/>
      <point x="1370" y="1030" type="line"/>
      <point x="1294" y="1160"/>
      <point x="1227" y="1295"/>
      <point x="1114" y="1407" type="curve"/>
    </contour>
    <contour>
      <point x="1370" y="1030" type="curve"/>
      <point x="1358" y="1030" type="line"/>
      <point x="1220" y="1303"/>
      <point x="1083" y="1502"/>
      <point x="860" y="1502" type="curve" smooth="yes"/>
      <point x="612" y="1502"/>
      <point x="550" y="1114"/>
      <point x="550" y="750" type="curve" smooth="yes"/>
      <point x="550" y="386"/>
      <point x="612" y="-2"/>
      <point x="860" y="-2" type="curve" smooth="yes"/>
      <point x="1128" y="-2"/>
      <point x="1260" y="209"/>
      <point x="1379" y="470" type="curve"/>
      <point x="1390" y="470" type="line"/>
      <point x="1270" y="184"/>
      <point x="1126" y="-20"/>
      <point x="840" y="-20" type="curve" smooth="yes"/>
      <point x="354" y="-20"/>
      <point x="80" y="304"/>
      <point x="80" y="750" type="curve" smooth="yes"/>
      <point x="80" y="1196"/>
      <point x="354" y="1520"/>
      <point x="840" y="1520" type="curve" smooth="yes"/>
      <point x="1096" y="1520"/>
      <point x="1230" y="1316"/>
    </contour>
    <contour>
      <point x="1390" y="470" type="curve"/>
      <point x="1390" y="0" type="line"/>
      <point x="1382" y="0" type="line"/>
      <point x="1154" y="105" type="line"/>
      <point x="1272" y="222"/>
      <point x="1328" y="347"/>
    </contour>
  </outline>
</glyph>
<glyph name="E" format="2">
  <advance width="1339"/>
  <unicode hex="0045"/>
  <outline>
    <contour>
      <point x="1271" y="450" type="curve"/>
      <point x="1280" y="450" type="line"/>
      <point x="1280" y="0" type="line"/>
      <point x="30" y="0" type="line"/>
      <point x="30" y="9" type="line"/>
      <point x="740" y="9" type="line" smooth="yes"/>
      <point x="1014" y="9"/>
      <point x="1211" y="196"/>
    </contour>
    <contour>
      <point x="210" y="1500" type="line"/>
      <point x="640" y="1500" type="line"/>
      <point x="640" y="0" type="line"/>
      <point x="210" y="0" type="line"/>
    </contour>
    <contour>
      <point x="30" y="1500" type="line"/>
      <point x="1260" y="1500" type="line"/>
      <point x="1260" y="1090" type="line"/>
      <point x="1250" y="1090" type="line"/>
      <point x="1190" y="1304"/>
      <point x="994" y="1491"/>
      <point x="760" y="1491" type="curve" smooth="yes"/>
      <point x="30" y="1491" type="line"/>
    </contour>
    <contour>
      <point x="970" y="496" type="line"/>
      <point x="910" y="630"/>
      <point x="774" y="771"/>
      <point x="660" y="771" type="curve" smooth="yes"/>
      <point x="540" y="771" type="line"/>
      <point x="540" y="781" type="line"/>
      <point x="660" y="781" type="line" smooth="yes"/>
      <point x="774" y="781"/>
      <point x="910" y="912"/>
      <point x="970" y="1046" type="curve"/>
      <point x="980" y="1046" type="line"/>
      <point x="980" y="496" type="line"/>
    </contour>
  </outline>
</glyph>
<glyph name="F" format="2">
  <advance width="1279"/>
  <unicode hex="0046"/>
  <outline>
    <contour>
      <point x="30" y="1500" type="line"/>
      <point x="1220" y="1500" type="line"/>
      <point x="1220" y="1090" type="line"/>
      <point x="1210" y="1090" type="line"/>
      <point x="1150" y="1304"/>
      <point x="994" y="1491"/>
      <point x="780" y="1491" type="curve" smooth="yes"/>
      <point x="30" y="1491" type="line"/>
    </contour>
    <contour>
      <point x="30" y="9" type="line"/>
      <point x="840" y="9" type="line"/>
      <point x="840" y="0" type="line"/>
      <point x="30" y="0" type="line"/>
    </contour>
    <contour>
      <point x="210" y="1500" type="line"/>
      <point x="640" y="1500" type="line"/>
      <point x="640" y="0" type="line"/>
      <point x="210" y="0" type="line"/>
    </contour>
    <contour>
      <point x="951" y="456" type="line"/>
      <point x="891" y="590"/>
      <point x="784" y="741"/>
      <point x="650" y="741" type="curve" smooth="yes"/>
      <point x="520" y="741" type="line"/>
      <point x="520" y="751" type="line"/>
      <point x="650" y="751" type="line" smooth="yes"/>
      <point x="784" y="751"/>
      <point x="891" y="892"/>
      <point x="951" y="1026" type="curve"/>
      <point x="960" y="1026" type="line"/>
      <point x="960" y="456" type="line"/>
    </contour>
  </outline>
</glyph>
<glyph name="G" format="2">
  <advance width="1599"/>
  <unicode hex="0047"/>
  <outline>
    <contour>
      <point x="1450" y="1030" type="line"/>
      <point x="1361" y="1242"/>
      <point x="1246" y="1344"/>
      <point x="1150" y="1421" type="curve"/>
      <point x="1442" y="1500" type="line"/>
      <point x="1450" y="1500" type="line"/>
    </contour>
    <contour>
      <point x="840" y="575" type="line"/>
      <point x="1580" y="575" type="line"/>
      <point x="1580" y="565" type="line"/>
      <point x="840" y="565" type="line"/>
    </contour>
    <contour>
      <point x="1050" y="569" type="line"/>
      <point x="1500" y="569" type="line"/>
      <point x="1500" y="290" type="line"/>
      <point x="1300" y="144"/>
      <point x="1176" y="-20"/>
      <point x="850" y="-20" type="curve" smooth="yes"/>
      <point x="374" y="-20"/>
      <point x="80" y="264"/>
      <point x="80" y="750" type="curve" smooth="yes"/>
      <point x="80" y="1236"/>
      <point x="474" y="1520"/>
      <point x="880" y="1520" type="curve" smooth="yes"/>
      <point x="1136" y="1520"/>
      <point x="1363" y="1276"/>
      <point x="1450" y="1030" type="curve"/>
      <point x="1441" y="1030" type="line"/>
      <point x="1361" y="1214"/>
      <point x="1165" y="1501"/>
      <point x="912" y="1501" type="curve" smooth="yes"/>
      <point x="664" y="1501"/>
      <point x="550" y="1114"/>
      <point x="550" y="750" type="curve" smooth="yes"/>
      <point x="550" y="386"/>
      <point x="612" y="-7"/>
      <point x="850" y="-7" type="curve" smooth="yes"/>
      <point x="938" y="-7"/>
      <point x="1010" y="126"/>
      <point x="1050" y="250" type="curve"/>
    </contour>
  </outline>
</glyph>
<glyph name="H" format="2">
  <advance width="1699"/>
  <unicode hex="0048"/>
  <outline>
    <contour>
      <point x="600" y="745" type="line"/>
      <point x="1100" y="745" type="line"/>
      <point x="1100" y="735" type="line"/>
      <point x="600" y="735" type="line"/>
    </contour>
    <contour>
      <point x="900" y="9" type="line"/>
      <point x="1670" y="9" type="line"/>
      <point x="1670" y="0" type="line"/>
      <point x="900" y="0" type="line"/>
    </contour>
    <contour>
      <point x="30" y="9" type="line"/>
      <point x="800" y="9" type="line"/>
      <point x="800" y="0" type="line"/>
      <point x="30" y="0" type="line"/>
    </contour>
    <contour>
      <point x="900" y="1500" type="line"/>
      <point x="1670" y="1500" type="line"/>
      <point x="1670" y="1491" type="line"/>
      <point x="900" y="1491" type="line"/>
    </contour>
    <contour>
      <point x="30" y="1500" type="line"/>
      <point x="800" y="1500" type="line"/>
      <point x="800" y="1491" type="line"/>
      <point x="30" y="1491" type="line"/>
    </contour>
    <contour>
      <point x="1060" y="1500" type="line"/>
      <point x="1490" y="1500" type="line"/>
      <point x="1490" y="0" type="line"/>
      <point x="1060" y="0" type="line"/>
    </contour>
    <contour>
      <point x="210" y="1500" type="line"/>
      <point x="640" y="1500" type="line"/>
      <point x="640" y="0" type="line"/>
      <point x="210" y="0" type="line"/>
    </contour>
  </outline>
</glyph>
<glyph name="I" format="2">
  <advance width="949"/>
  <unicode hex="0049"/>
  <outline>
    <contour>
      <point x="30" y="9" type="line"/>
      <point x="920" y="9" type="line"/>
      <point x="920" y="0" type="line"/>
      <point x="30" y="0" type="line"/>
    </contour>
    <contour>
      <point x="30" y="1500" type="line"/>
      <point x="920" y="1500" type="line"/>
      <point x="920" y="1491" type="line"/>
      <point x="30" y="1491" type="line"/>
    </contour>
    <contour>
      <point x="250" y="1500" type="line"/>
      <point x="680" y="1500" type="line"/>
      <point x="680" y="0" type="line"/>
      <point x="250" y="0" type="line"/>
    </contour>
  </outline>
</glyph>
<glyph name="J" format="2">
  <advance width="1281"/>
  <unicode hex="004A"/>
  <outline>
    <contour>
      <point x="362" y="1500" type="line"/>
      <point x="1252" y="1500" type="line"/>
      <point x="1252" y="1491" type="line"/>
      <point x="362" y="1491" type="line"/>
    </contour>
    <contour>
      <point x="622" y="1500" type="line"/>
      <point x="1052" y="1500" type="line"/>
      <point x="1052" y="340" type="line"/>
      <point x="932" y="100"/>
      <point x="794" y="-60"/>
      <point x="452" y="-60" type="curve" smooth="yes"/>
      <point x="198" y="-60"/>
      <point x="20" y="50"/>
      <point x="20" y="250" type="curve" smooth="yes"/>
      <point x="20" y="394"/>
      <point x="134" y="500"/>
      <point x="274" y="500" type="curve" smooth="yes"/>
      <point x="404" y="500"/>
      <point x="506" y="404"/>
      <point x="506" y="262" type="curve" smooth="yes"/>
      <point x="506" y="142"/>
      <point x="410" y="24"/>
      <point x="284" y="24" type="curve" smooth="yes"/>
      <point x="196" y="24"/>
      <point x="116" y="52"/>
      <point x="86" y="88" type="curve"/>
      <point x="144" y="-1"/>
      <point x="292" y="-50"/>
      <point x="441" y="-50" type="curve" smooth="yes"/>
      <point x="583" y="-50"/>
      <point x="622" y="100"/>
      <point x="622" y="380" type="curve" smooth="yes"/>
    </contour>
  </outline>
</glyph>
<glyph name="L" format="2">
  <advance width="1319"/>
  <unicode hex="004C"/>
  <outline>
    <contour>
      <point x="210" y="1500" type="line"/>
      <point x="640" y="1500" type="line"/>
      <point x="640" y="0" type="line"/>
      <point x="210" y="0" type="line"/>
    </contour>
    <contour>
      <point x="30" y="1500" type="line"/>
      <point x="820" y="1500" type="line"/>
      <point x="820" y="1491" type="line"/>
      <point x="30" y="1491" type="line"/>
    </contour>
    <contour>
      <point x="1280" y="0" type="line"/>
      <point x="30" y="0" type="line"/>
      <point x="30" y="9" type="line"/>
      <point x="740" y="9" type="line" smooth="yes"/>
      <point x="1014" y="9"/>
      <point x="1211" y="196"/>
      <point x="1271" y="450" type="curve"/>
      <point x="1280" y="450" type="line"/>
    </contour>
  </outline>
</glyph>
<glyph name="M" format="2">
  <advance width="1879"/>
  <unicode hex="004D"/>
  <outline>
    <contour>
      <point x="1850" y="1500" type="line"/>
      <point x="1850" y="1491" type="line"/>
      <point x="1710" y="1491" type="line"/>
      <point x="1710" y="0" type="line"/>
      <point x="1280" y="0" type="line"/>
      <point x="1280" y="1500" type="line"/>
    </contour>
    <contour>
      <point x="40" y="9" type="line"/>
      <point x="347" y="9" type="line"/>
      <point x="347" y="0" type="line"/>
      <point x="40" y="0" type="line"/>
    </contour>
    <contour>
      <point x="1120" y="9" type="line"/>
      <point x="1850" y="9" type="line"/>
      <point x="1850" y="0" type="line"/>
      <point x="1120" y="0" type="line"/>
    </contour>
    <contour>
      <point x="958" y="594" type="line"/>
      <point x="1275" y="1500" type="line"/>
      <point x="1285" y="1500" type="line"/>
      <point x="755" y="-20" type="line"/>
      <point x="742" y="-20" type="line"/>
      <point x="186" y="1500" type="line"/>
      <point x="618" y="1500" type="line"/>
    </contour>
    <contour>
      <point x="183" y="1491" type="line"/>
      <point x="30" y="1491" type="line"/>
      <point x="30" y="1500" type="line"/>
      <point x="194" y="1500" type="line"/>
      <point x="194" y="0" type="line"/>
      <point x="183" y="0" type="line"/>
    </contour>
  </outline>
</glyph>
<glyph name="N" format="2">
  <advance width="1535"/>
  <unicode hex="004E"/>
  <outline>
    <contour>
      <point x="1286" y="1500" type="line"/>
      <point x="1296" y="1500" type="line"/>
      <point x="1296" y="-20" type="line"/>
      <point x="1282" y="-20" type="line"/>
      <point x="230" y="1500" type="line"/>
      <point x="740" y="1500" type="line"/>
      <point x="1286" y="714" type="line"/>
    </contour>
    <contour>
      <point x="1066" y="1500" type="line"/>
      <point x="1506" y="1500" type="line"/>
      <point x="1506" y="1491" type="line"/>
      <point x="1066" y="1491" type="line"/>
    </contour>
    <contour>
      <point x="30" y="9" type="line"/>
      <point x="463" y="9" type="line"/>
      <point x="463" y="0" type="line"/>
      <point x="30" y="0" type="line"/>
    </contour>
    <contour>
      <point x="229" y="1491" type="line"/>
      <point x="30" y="1491" type="line"/>
      <point x="30" y="1500" type="line"/>
      <point x="240" y="1500" type="line"/>
      <point x="240" y="0" type="line"/>
      <point x="229" y="0" type="line"/>
    </contour>
  </outline>
</glyph>
<glyph name="S" format="2">
  <advance width="2600"/>
  <unicode hex="0053"/>
  <outline>
    <contour>
      <point x="2273" y="2109" type="curve"/>
      <point x="2250" y="2109" type="line"/>
      <point x="2004" y="2670"/>
      <point x="1692" y="3090"/>
      <point x="1182" y="3090" type="curve" smooth="yes"/>
      <point x="912" y="3090"/>
      <point x="778" y="2884"/>
      <point x="778" y="2642" type="curve" smooth="yes"/>
      <point x="778" y="2007"/>
      <point x="2437" y="2171"/>
      <point x="2437" y="942" type="curve" smooth="yes"/>
      <point x="2437" y="328"/>
      <point x="1909" y="-61"/>
      <point x="1331" y="-61" type="curve" smooth="yes"/>
      <point x="692" y="-61"/>
      <point x="385" y="552"/>
      <point x="164" y="1044" type="curve"/>
      <point x="186" y="1044" type="line"/>
      <point x="405" y="565"/>
      <point x="714" y="-40"/>
      <point x="1326" y="-40" type="curve" smooth="yes"/>
      <point x="1678" y="-40"/>
      <point x="1864" y="229"/>
      <point x="1864" y="512" type="curve" smooth="yes"/>
      <point x="1864" y="1229"/>
      <point x="205" y="921"/>
      <point x="205" y="2232" type="curve" smooth="yes"/>
      <point x="205" y="2805"/>
      <point x="680" y="3113"/>
      <point x="1176" y="3113" type="curve" smooth="yes"/>
      <point x="1700" y="3113"/>
      <point x="2027" y="2687"/>
    </contour>
    <contour>
      <point x="2258" y="3113" type="line"/>
      <point x="2273" y="3113" type="line"/>
      <point x="2273" y="2109" type="line"/>
      <point x="2110" y="2455"/>
      <point x="1973" y="2682"/>
      <point x="1737" y="2908" type="curve"/>
    </contour>
    <contour>
      <point x="180" y="-41" type="line"/>
      <point x="164" y="-41" type="line"/>
      <point x="164" y="1044" type="line"/>
      <point x="359" y="642"/>
      <point x="517" y="379"/>
      <point x="725" y="180" type="curve"/>
    </contour>
  </outline>
</glyph>
<glyph name="T" format="2">
  <advance width="1449"/>
  <unicode hex="0054"/>
  <outline>
    <contour>
      <point x="290" y="9" type="line"/>
      <point x="1160" y="9" type="line"/>
      <point x="1160" y="0" type="line"/>
      <point x="290" y="0" type="line"/>
    </contour>
    <contour>
      <point x="510" y="1495" type="line"/>
      <point x="940" y="1495" type="line"/>
      <point x="940" y="0" type="line"/>
      <point x="510" y="0" type="line"/>
    </contour>
    <contour>
      <point x="1000" y="1491" type="curve" smooth="yes"/>
      <point x="450" y="1491" type="line" smooth="yes"/>
      <point x="256" y="1491"/>
      <point x="100" y="1244"/>
      <point x="40" y="990" type="curve"/>
      <point x="30" y="990" type="line"/>
      <point x="30" y="1500" type="line"/>
      <point x="1420" y="1500" type="line"/>
      <point x="1420" y="990" type="line"/>
      <point x="1411" y="990" type="line"/>
      <point x="1351" y="1244"/>
      <point x="1194" y="1491"/>
    </contour>
  </outline>
</glyph>
<glyph name="U" format="2">
  <advance width="3072"/>
  <unicode hex="0055"/>
  <outline>
    <contour>
      <point x="2212" y="3072" type="line"/>
      <point x="3011" y="3072" type="line"/>
      <point x="3011" y="3053" type="line"/>
      <point x="2212" y="3053" type="line"/>
    </contour>
    <contour>
      <point x="61" y="3072" type="line"/>
      <point x="1720" y="3072" type="line"/>
      <point x="1720" y="3053" type="line"/>
      <point x="61" y="3053" type="line"/>
    </contour>
    <contour>
      <point x="2590" y="3072" type="line"/>
      <point x="2612" y="3072" type="line"/>
      <point x="2612" y="942" type="line" smooth="yes"/>
      <point x="2612" y="266"/>
      <point x="2306" y="-61"/>
      <point x="1618" y="-61" type="curve" smooth="yes"/>
      <point x="787" y="-61"/>
      <point x="430" y="233"/>
      <point x="430" y="942" type="curve" smooth="yes"/>
      <point x="430" y="3072" type="line"/>
      <point x="1311" y="3072" type="line"/>
      <point x="1311" y="983" type="line" smooth="yes"/>
      <point x="1311" y="442"/>
      <point x="1380" y="1"/>
      <point x="1847" y="1" type="curve" smooth="yes"/>
      <point x="2261" y="1"/>
      <point x="2590" y="274"/>
      <point x="2590" y="942" type="curve" smooth="yes"/>
    </contour>
  </outline>
</glyph>
<glyph name="W" format="2">
  <advance width="2459"/>
  <unicode hex="0057"/>
  <outline>
    <contour>
      <point x="1334" y="950" type="line"/>
      <point x="959" y="-20" type="line"/>
      <point x="790" y="-20" type="line"/>
      <point x="158" y="1500" type="line"/>
      <point x="662" y="1500" type="line"/>
      <point x="1112" y="406" type="line"/>
      <point x="1338" y="988" type="line"/>
    </contour>
    <contour>
      <point x="1531" y="912" type="line"/>
      <point x="1532" y="948" type="line"/>
      <point x="1758" y="1500" type="line"/>
      <point x="1768" y="1500" type="line"/>
    </contour>
    <contour>
      <point x="2440" y="1491" type="line"/>
      <point x="2040" y="1491" type="line"/>
      <point x="2040" y="1500" type="line"/>
      <point x="2440" y="1500" type="line"/>
    </contour>
    <contour>
      <point x="1362" y="1500" type="line"/>
      <point x="1812" y="406" type="line"/>
      <point x="2240" y="1500" type="line"/>
      <point x="2250" y="1500" type="line"/>
      <point x="1660" y="-20" type="line"/>
      <point x="1552" y="-20" type="line"/>
      <point x="918" y="1500" type="line"/>
    </contour>
    <contour>
      <point x="1960" y="1491" type="line"/>
      <point x="20" y="1491" type="line"/>
      <point x="20" y="1500" type="line"/>
      <point x="1960" y="1500" type="line"/>
    </contour>
  </outline>
</glyph>
<glyph name="X" format="2">
  <advance width="1699"/>
  <unicode hex="0058"/>
  <outline>
    <contour>
      <point x="852" y="754" type="line"/>
      <point x="838" y="754" type="line"/>
      <point x="1352" y="1496" type="line"/>
      <point x="1364" y="1496" type="line"/>
    </contour>
    <contour>
      <point x="248" y="0" type="line"/>
      <point x="235" y="0" type="line"/>
      <point x="826" y="834" type="line"/>
      <point x="840" y="834" type="line"/>
    </contour>
    <contour>
      <point x="880" y="9" type="line"/>
      <point x="1680" y="9" type="line"/>
      <point x="1680" y="0" type="line"/>
      <point x="880" y="0" type="line"/>
    </contour>
    <contour>
      <point x="20" y="9" type="line"/>
      <point x="500" y="9" type="line"/>
      <point x="500" y="0" type="line"/>
      <point x="20" y="0" type="line"/>
    </contour>
    <contour>
      <point x="890" y="1491" type="line"/>
      <point x="90" y="1491" type="line"/>
      <point x="90" y="1500" type="line"/>
      <point x="890" y="1500" type="line"/>
    </contour>
    <contour>
      <point x="1570" y="1491" type="line"/>
      <point x="1130" y="1491" type="line"/>
      <point x="1130" y="1500" type="line"/>
      <point x="1570" y="1500" type="line"/>
    </contour>
    <contour>
      <point x="1552" y="0" type="line"/>
      <point x="1072" y="0" type="line"/>
      <point x="210" y="1500" type="line"/>
      <point x="682" y="1500" type="line"/>
    </contour>
  </outline>
</glyph>
<glyph name="Y" format="2">
  <advance width="3132"/>
  <unicode hex="0059"/>
  <outline>
    <contour>
      <point x="3092" y="3053" type="line"/>
      <point x="2232" y="3053" type="line"/>
      <point x="2232" y="3072" type="line"/>
      <point x="3092" y="3072" type="line"/>
    </contour>
    <contour>
      <point x="1720" y="3053" type="line"/>
      <point x="41" y="3053" type="line"/>
      <point x="41" y="3072" type="line"/>
      <point x="1720" y="3072" type="line"/>
    </contour>
    <contour>
      <point x="799" y="19" type="line"/>
      <point x="2458" y="19" type="line"/>
      <point x="2458" y="0" type="line"/>
      <point x="799" y="0" type="line"/>
    </contour>
    <contour>
      <point x="2037" y="1595" type="line"/>
      <point x="2708" y="3064" type="line"/>
      <point x="2733" y="3064" type="line"/>
      <point x="2048" y="1569" type="line"/>
      <point x="2048" y="0" type="line"/>
      <point x="1167" y="0" type="line"/>
      <point x="1167" y="1475" type="line"/>
      <point x="287" y="3072" type="line"/>
      <point x="1311" y="3072" type="line"/>
    </contour>
  </outline>
</glyph>
<glyph name="Z" format="2">
  <advance width="1349"/>
  <unicode hex="005A"/>
  <outline>
    <contour>
      <point x="60" y="1500" type="line"/>
      <point x="1260" y="1500" type="line"/>
      <point x="1260" y="1491" type="line"/>
      <point x="510" y="9" type="line"/>
      <point x="800" y="9" type="line" smooth="yes"/>
      <point x="1074" y="9"/>
      <point x="1191" y="186"/>
      <point x="1271" y="440" type="curve"/>
      <point x="1280" y="440" type="line"/>
      <point x="1280" y="0" type="line"/>
      <point x="20" y="0" type="line"/>
      <point x="20" y="9" type="line"/>
      <point x="770" y="1491" type="line"/>
      <point x="540" y="1491" type="line" smooth="yes"/>
      <point x="266" y="1491"/>
      <point x="150" y="1314"/>
      <point x="70" y="1100" type="curve"/>
      <point x="60" y="1100" type="line"/>
    </contour>
  </outline>
</glyph>
<glyph name="bracketleft" format="2">
  <advance width="1576"/>
  <unicode hex="005B"/>
  <outline>
    <contour>
      <point x="1454" y="-614" type="line"/>
      <point x="226" y="-614" type="line"/>
      <point x="226" y="-595" type="line"/>
      <point x="1454" y="-595" type="line"/>
    </contour>
    <contour>
      <point x="1454" y="3175" type="line"/>
      <point x="226" y="3175" type="line"/>
      <point x="226" y="3194" type="line"/>
      <point x="1454" y="3194" type="line"/>
    </contour>
    <contour>
      <point x="1086" y="3194" type="line"/>
      <point x="1086" y="-614" type="line"/>
      <point x="226" y="-614" type="line"/>
      <point x="226" y="3194" type="line"/>
    </contour>
  </outline>
</glyph>
<glyph name="grave" format="2">
  <advance width="1740"/>
  <unicode hex="0060"/>
  <outline>
    <contour>
      <point x="614" y="2786" type="line" smooth="yes"/>
      <point x="415" y="2741"/>
      <point x="226" y="2892"/>
      <point x="226" y="3092" type="curve" smooth="yes"/>
      <point x="226" y="3292"/>
      <point x="455" y="3485"/>
      <point x="656" y="3392" type="curve" smooth="yes"/>
      <point x="1505" y="3000" type="line"/>
      <point x="1499" y="2980" type="line"/>
    </contour>
  </outline>
</glyph>
<glyph name="a" format="2">
  <advance width="1263"/>
  <unicode hex="0061"/>
  <outline>
    <contour>
      <point x="1263" y="126" type="line"/>
      <point x="1217" y="26"/>
      <point x="1094" y="-20"/>
      <point x="948" y="-20" type="curve" smooth="yes"/>
      <point x="794" y="-20"/>
      <point x="664" y="28"/>
      <point x="664" y="166" type="curve" smooth="yes"/>
      <point x="664" y="610" type="line" smooth="yes"/>
      <point x="664" y="784"/>
      <point x="601" y="922"/>
      <point x="461" y="922" type="curve" smooth="yes"/>
      <point x="364" y="922"/>
      <point x="270" y="882"/>
      <point x="234" y="856" type="curve"/>
      <point x="394" y="925"/>
      <point x="553" y="840"/>
      <point x="553" y="716" type="curve" smooth="yes"/>
      <point x="553" y="616"/>
      <point x="445" y="542"/>
      <point x="335" y="542" type="curve" smooth="yes"/>
      <point x="215" y="542"/>
      <point x="131" y="620"/>
      <point x="131" y="712" type="curve" smooth="yes"/>
      <point x="131" y="846"/>
      <point x="306" y="936"/>
      <point x="528" y="936" type="curve" smooth="yes"/>
      <point x="888" y="936"/>
      <point x="1043" y="812"/>
      <point x="1043" y="610" type="curve" smooth="yes"/>
      <point x="1043" y="98" type="line" smooth="yes"/>
      <point x="1043" y="58"/>
      <point x="1070" y="29"/>
      <point x="1118" y="29" type="curve" smooth="yes"/>
      <point x="1147" y="29"/>
      <point x="1213" y="46"/>
      <point x="1256" y="128" type="curve"/>
    </contour>
    <contour>
      <point x="500" y="507" type="curve" smooth="yes"/>
      <point x="767" y="507" type="line"/>
      <point x="767" y="497" type="line"/>
      <point x="639" y="497" type="line" smooth="yes"/>
      <point x="547" y="497"/>
      <point x="465" y="390"/>
      <point x="465" y="266" type="curve" smooth="yes"/>
      <point x="465" y="158"/>
      <point x="500" y="115"/>
      <point x="550" y="115" type="curve" smooth="yes"/>
      <point x="592" y="115"/>
      <point x="664" y="160"/>
      <point x="664" y="362" type="curve"/>
      <point x="671" y="362" type="line"/>
      <point x="671" y="114"/>
      <point x="554" y="-20"/>
      <point x="332" y="-20" type="curve" smooth="yes"/>
      <point x="174" y="-20"/>
      <point x="61" y="78"/>
      <point x="61" y="226" type="curve" smooth="yes"/>
      <point x="61" y="394"/>
      <point x="216" y="507"/>
    </contour>
  </outline>
</glyph>
<glyph name="b" format="2">
  <advance width="1327"/>
  <unicode hex="0062"/>
  <outline>
    <contour>
      <point x="534" y="460" type="curve" smooth="yes"/>
      <point x="534" y="764"/>
      <point x="643" y="938"/>
      <point x="853" y="938" type="curve" smooth="yes"/>
      <point x="1071" y="938"/>
      <point x="1278" y="760"/>
      <point x="1278" y="460" type="curve" smooth="yes"/>
      <point x="1278" y="160"/>
      <point x="1071" y="-20"/>
      <point x="853" y="-20" type="curve" smooth="yes"/>
      <point x="645" y="-20"/>
      <point x="534" y="156"/>
    </contour>
    <contour>
      <point x="542" y="460" type="curve" smooth="yes"/>
      <point x="542" y="161"/>
      <point x="663" y="17"/>
      <point x="760" y="17" type="curve" smooth="yes"/>
      <point x="828" y="17"/>
      <point x="847" y="152"/>
      <point x="847" y="460" type="curve" smooth="yes"/>
      <point x="847" y="768"/>
      <point x="828" y="901"/>
      <point x="760" y="901" type="curve" smooth="yes"/>
      <point x="663" y="901"/>
      <point x="542" y="759"/>
    </contour>
    <contour>
      <point x="162" y="1491" type="line"/>
      <point x="21" y="1491" type="line"/>
      <point x="21" y="1500" type="line"/>
      <point x="542" y="1500" type="line"/>
      <point x="542" y="0" type="line"/>
      <point x="21" y="0" type="line"/>
      <point x="21" y="9" type="line"/>
      <point x="162" y="9" type="line"/>
    </contour>
  </outline>
</glyph>
<glyph name="c" format="2">
  <advance width="1081"/>
  <unicode hex="0063"/>
  <outline>
    <contour>
      <point x="948" y="797" type="curve"/>
      <point x="907" y="855"/>
      <point x="773" y="926"/>
      <point x="648" y="926" type="curve" smooth="yes"/>
      <point x="510" y="926"/>
      <point x="501" y="648"/>
      <point x="501" y="460" type="curve" smooth="yes"/>
      <point x="501" y="232"/>
      <point x="546" y="7"/>
      <point x="667" y="7" type="curve" smooth="yes"/>
      <point x="823" y="7"/>
      <point x="948" y="118"/>
      <point x="998" y="286" type="curve"/>
      <point x="1007" y="286" type="line"/>
      <point x="955" y="112"/>
      <point x="829" y="-20"/>
      <point x="587" y="-20" type="curve" smooth="yes"/>
      <point x="265" y="-20"/>
      <point x="51" y="120"/>
      <point x="51" y="460" type="curve" smooth="yes"/>
      <point x="51" y="760"/>
      <point x="237" y="940"/>
      <point x="599" y="940" type="curve" smooth="yes"/>
      <point x="823" y="940"/>
      <point x="1021" y="816"/>
      <point x="1021" y="652" type="curve" smooth="yes"/>
      <point x="1021" y="530"/>
      <point x="938" y="458"/>
      <point x="818" y="458" type="curve" smooth="yes"/>
      <point x="708" y="458"/>
      <point x="603" y="510"/>
      <point x="603" y="660" type="curve" smooth="yes"/>
      <point x="603" y="790"/>
      <point x="716" y="850"/>
      <point x="794" y="850" type="curve" smooth="yes"/>
      <point x="869" y="850"/>
      <point x="913" y="830"/>
    </contour>
  </outline>
</glyph>
<glyph name="d" format="2">
  <advance width="1327"/>
  <unicode hex="0064"/>
  <outline>
    <contour>
      <point x="795" y="458" type="curve" smooth="yes"/>
      <point x="795" y="154"/>
      <point x="685" y="-20"/>
      <point x="475" y="-20" type="curve" smooth="yes"/>
      <point x="257" y="-20"/>
      <point x="51" y="158"/>
      <point x="51" y="458" type="curve" smooth="yes"/>
      <point x="51" y="758"/>
      <point x="257" y="938"/>
      <point x="475" y="938" type="curve" smooth="yes"/>
      <point x="683" y="938"/>
      <point x="795" y="762"/>
    </contour>
    <contour>
      <point x="788" y="458" type="curve" smooth="yes"/>
      <point x="788" y="763"/>
      <point x="663" y="901"/>
      <point x="569" y="901" type="curve" smooth="yes"/>
      <point x="501" y="901"/>
      <point x="482" y="769"/>
      <point x="482" y="458" type="curve" smooth="yes"/>
      <point x="482" y="147"/>
      <point x="504" y="21"/>
      <point x="572" y="21" type="curve" smooth="yes"/>
      <point x="666" y="21"/>
      <point x="788" y="153"/>
    </contour>
    <contour>
      <point x="1307" y="9" type="line"/>
      <point x="1307" y="0" type="line"/>
      <point x="788" y="0" type="line"/>
      <point x="788" y="1491" type="line"/>
      <point x="648" y="1491" type="line"/>
      <point x="648" y="1500" type="line"/>
      <point x="1167" y="1500" type="line"/>
      <point x="1167" y="9" type="line"/>
    </contour>
  </outline>
</glyph>
<glyph name="e" format="2">
  <advance width="1077"/>
  <unicode hex="0065"/>
  <outline>
    <contour>
      <point x="185" y="517" type="line"/>
      <point x="185" y="527" type="line"/>
      <point x="643" y="527" type="line"/>
      <point x="641" y="720"/>
      <point x="639" y="930"/>
      <point x="561" y="930" type="curve" smooth="yes"/>
      <point x="483" y="930"/>
      <point x="461" y="728"/>
      <point x="461" y="500" type="curve" smooth="yes"/>
      <point x="461" y="212"/>
      <point x="494" y="6"/>
      <point x="652" y="6" type="curve" smooth="yes"/>
      <point x="825" y="6"/>
      <point x="969" y="120"/>
      <point x="1019" y="286" type="curve"/>
      <point x="1028" y="286" type="line"/>
      <point x="976" y="112"/>
      <point x="830" y="-20"/>
      <point x="568" y="-20" type="curve" smooth="yes"/>
      <point x="266" y="-20"/>
      <point x="51" y="140"/>
      <point x="51" y="460" type="curve" smooth="yes"/>
      <point x="51" y="780"/>
      <point x="259" y="940"/>
      <point x="561" y="940" type="curve" smooth="yes"/>
      <point x="859" y="940"/>
      <point x="1026" y="735"/>
      <point x="1026" y="517" type="curve"/>
    </contour>
  </outline>
</glyph>
<glyph name="f" format="2">
  <advance width="1725"/>
  <unicode hex="0066"/>
  <outline>
    <contour>
      <point x="23" y="19" type="line"/>
      <point x="1621" y="19" type="line"/>
      <point x="1621" y="0" type="line"/>
      <point x="23" y="0" type="line"/>
    </contour>
    <contour>
      <point x="23" y="1884" type="line"/>
      <point x="1703" y="1884" type="line"/>
      <point x="1703" y="1865" type="line"/>
      <point x="23" y="1865" type="line"/>
    </contour>
    <contour>
      <point x="2108" y="2814" type="curve"/>
      <point x="2049" y="2904"/>
      <point x="1899" y="3093"/>
      <point x="1573" y="3093" type="curve" smooth="yes"/>
      <point x="1245" y="3093"/>
      <point x="1129" y="2732"/>
      <point x="1129" y="2212" type="curve" smooth="yes"/>
      <point x="1129" y="0" type="line"/>
      <point x="393" y="0" type="line"/>
      <point x="393" y="2097" type="line" smooth="yes"/>
      <point x="393" y="2715"/>
      <point x="912" y="3113"/>
      <point x="1567" y="3113" type="curve" smooth="yes"/>
      <point x="1940" y="3113"/>
      <point x="2195" y="2859"/>
      <point x="2195" y="2585" type="curve" smooth="yes"/>
      <point x="2195" y="2335"/>
      <point x="2043" y="2167"/>
      <point x="1797" y="2167" type="curve" smooth="yes"/>
      <point x="1572" y="2167"/>
      <point x="1363" y="2306"/>
      <point x="1363" y="2552" type="curve" smooth="yes"/>
      <point x="1363" y="2785"/>
      <point x="1552" y="2957"/>
      <point x="1761" y="2957" type="curve" smooth="yes"/>
      <point x="1919" y="2957"/>
      <point x="2027" y="2892"/>
    </contour>
  </outline>
</glyph>
<glyph name="g" format="2">
  <advance width="2737"/>
  <unicode hex="0067"/>
  <outline>
    <contour>
      <point x="175" y="233" type="curve" smooth="yes"/>
      <point x="175" y="548"/>
      <point x="710" y="673"/>
      <point x="1099" y="673" type="curve"/>
      <point x="1097" y="660" type="line"/>
      <point x="921" y="660"/>
      <point x="617" y="627"/>
      <point x="617" y="506" type="curve" smooth="yes"/>
      <point x="617" y="416"/>
      <point x="830" y="406"/>
      <point x="1055" y="406" type="curve" smooth="yes"/>
      <point x="1198" y="406"/>
      <point x="1354" y="410"/>
      <point x="1469" y="410" type="curve" smooth="yes"/>
      <point x="1776" y="410"/>
      <point x="2195" y="221"/>
      <point x="2195" y="-336" type="curve" smooth="yes"/>
      <point x="2195" y="-832"/>
      <point x="1784" y="-1065"/>
      <point x="1129" y="-1065" type="curve" smooth="yes"/>
      <point x="625" y="-1065"/>
      <point x="43" y="-942"/>
      <point x="43" y="-588" type="curve" smooth="yes"/>
      <point x="43" y="-250"/>
      <point x="535" y="-215"/>
      <point x="719" y="-215" type="curve" smooth="yes"/>
      <point x="761" y="-215" type="line"/>
      <point x="659" y="-268"/>
      <point x="637" y="-439"/>
      <point x="637" y="-488" type="curve" smooth="yes"/>
      <point x="637" y="-848"/>
      <point x="853" y="-1039"/>
      <point x="1164" y="-1039" type="curve" smooth="yes"/>
      <point x="1509" y="-1039"/>
      <point x="2025" y="-963"/>
      <point x="2025" y="-585" type="curve" smooth="yes"/>
      <point x="2025" y="-364"/>
      <point x="1723" y="-242"/>
      <point x="1457" y="-242" type="curve" smooth="yes"/>
      <point x="1330" y="-242"/>
      <point x="1081" y="-242"/>
      <point x="991" y="-242" type="curve" smooth="yes"/>
      <point x="622" y="-242"/>
      <point x="175" y="-144"/>
    </contour>
    <contour>
      <point x="945" y="1290" type="curve" smooth="yes"/>
      <point x="945" y="905"/>
      <point x="966" y="675"/>
      <point x="1085" y="675" type="curve" smooth="yes"/>
      <point x="1163" y="675"/>
      <point x="1223" y="905"/>
      <point x="1223" y="1290" type="curve" smooth="yes"/>
      <point x="1223" y="1675"/>
      <point x="1163" y="1905"/>
      <point x="1085" y="1905" type="curve" smooth="yes"/>
      <point x="1007" y="1905"/>
      <point x="945" y="1675"/>
    </contour>
    <contour>
      <point x="147" y="1290" type="curve" smooth="yes"/>
      <point x="147" y="1741"/>
      <point x="630" y="1925"/>
      <point x="1085" y="1925" type="curve" smooth="yes"/>
      <point x="1540" y="1925"/>
      <point x="2023" y="1741"/>
      <point x="2023" y="1290" type="curve" smooth="yes"/>
      <point x="2023" y="839"/>
      <point x="1540" y="655"/>
      <point x="1085" y="655" type="curve" smooth="yes"/>
      <point x="630" y="655"/>
      <point x="147" y="839"/>
    </contour>
    <contour>
      <point x="2673" y="1613" type="curve"/>
      <point x="2632" y="1737"/>
      <point x="2505" y="1885"/>
      <point x="2247" y="1885" type="curve" smooth="yes"/>
      <point x="2007" y="1885"/>
      <point x="1773" y="1770"/>
      <point x="1691" y="1414" type="curve"/>
      <point x="1675" y="1421" type="line"/>
      <point x="1757" y="1794"/>
      <point x="2001" y="1905"/>
      <point x="2247" y="1905" type="curve" smooth="yes"/>
      <point x="2579" y="1905"/>
      <point x="2715" y="1667"/>
      <point x="2715" y="1511" type="curve" smooth="yes"/>
      <point x="2715" y="1245"/>
      <point x="2546" y="1163"/>
      <point x="2403" y="1163" type="curve" smooth="yes"/>
      <point x="2260" y="1163"/>
      <point x="2097" y="1253"/>
      <point x="2097" y="1470" type="curve" smooth="yes"/>
      <point x="2097" y="1626"/>
      <point x="2216" y="1765"/>
      <point x="2392" y="1765" type="curve" smooth="yes"/>
      <point x="2532" y="1765"/>
      <point x="2641" y="1685"/>
    </contour>
  </outline>
</glyph>
<glyph name="h" format="2">
  <advance width="1312"/>
  <unicode hex="0068"/>
  <outline>
    <contour>
      <point x="771" y="650" type="line" smooth="yes"/>
      <point x="771" y="818"/>
      <point x="756" y="838"/>
      <point x="700" y="838" type="curve" smooth="yes"/>
      <point x="595" y="838"/>
      <point x="542" y="632"/>
      <point x="542" y="446" type="curve"/>
      <point x="534" y="446" type="line"/>
      <point x="534" y="652"/>
      <point x="582" y="940"/>
      <point x="868" y="940" type="curve" smooth="yes"/>
      <point x="1082" y="940"/>
      <point x="1152" y="812"/>
      <point x="1152" y="638" type="curve" smooth="yes"/>
      <point x="1152" y="0" type="line"/>
      <point x="771" y="0" type="line"/>
    </contour>
    <contour>
      <point x="692" y="9" type="line"/>
      <point x="1292" y="9" type="line"/>
      <point x="1292" y="0" type="line"/>
      <point x="692" y="0" type="line"/>
    </contour>
    <contour>
      <point x="21" y="9" type="line"/>
      <point x="622" y="9" type="line"/>
      <point x="622" y="0" type="line"/>
      <point x="21" y="0" type="line"/>
    </contour>
    <contour>
      <point x="162" y="1491" type="line"/>
      <point x="21" y="1491" type="line"/>
      <point x="21" y="1500" type="line"/>
      <point x="542" y="1500" type="line"/>
      <point x="542" y="0" type="line"/>
      <point x="162" y="0" type="line"/>
    </contour>
  </outline>
</glyph>
<glyph name="i" format="2">
  <advance width="692"/>
  <unicode hex="0069"/>
  <outline>
    <contour>
      <point x="32" y="9" type="line"/>
      <point x="692" y="9" type="line"/>
      <point x="692" y="0" type="line"/>
      <point x="32" y="0" type="line"/>
    </contour>
    <contour>
      <point x="122" y="1300" type="curve" smooth="yes"/>
      <point x="122" y="1426"/>
      <point x="215" y="1520"/>
      <point x="341" y="1520" type="curve" smooth="yes"/>
      <point x="467" y="1520"/>
      <point x="561" y="1426"/>
      <point x="561" y="1300" type="curve" smooth="yes"/>
      <point x="561" y="1174"/>
      <point x="467" y="1080"/>
      <point x="341" y="1080" type="curve" smooth="yes"/>
      <point x="215" y="1080"/>
      <point x="122" y="1174"/>
    </contour>
    <contour>
      <point x="171" y="911" type="line"/>
      <point x="32" y="911" type="line"/>
      <point x="32" y="920" type="line"/>
      <point x="551" y="920" type="line"/>
      <point x="551" y="0" type="line"/>
      <point x="171" y="0" type="line"/>
    </contour>
  </outline>
</glyph>
<glyph name="j" format="2">
  <advance width="1467"/>
  <unicode hex="006A"/>
  <outline>
    <contour>
      <point x="319" y="2662" type="curve" smooth="yes"/>
      <point x="319" y="2920"/>
      <point x="511" y="3113"/>
      <point x="769" y="3113" type="curve" smooth="yes"/>
      <point x="1027" y="3113"/>
      <point x="1219" y="2920"/>
      <point x="1219" y="2662" type="curve" smooth="yes"/>
      <point x="1219" y="2404"/>
      <point x="1027" y="2212"/>
      <point x="769" y="2212" type="curve" smooth="yes"/>
      <point x="511" y="2212"/>
      <point x="319" y="2404"/>
    </contour>
    <contour>
      <point x="1191" y="1884" type="line"/>
      <point x="1191" y="-49" type="line" smooth="yes"/>
      <point x="1191" y="-586"/>
      <point x="671" y="-1065"/>
      <point x="57" y="-1065" type="curve" smooth="yes"/>
      <point x="-357" y="-1065"/>
      <point x="-693" y="-843"/>
      <point x="-693" y="-536" type="curve" smooth="yes"/>
      <point x="-693" y="-290"/>
      <point x="-488" y="-119"/>
      <point x="-255" y="-119" type="curve" smooth="yes"/>
      <point x="-30" y="-119"/>
      <point x="179" y="-258"/>
      <point x="179" y="-504" type="curve" smooth="yes"/>
      <point x="179" y="-729"/>
      <point x="17" y="-897"/>
      <point x="-266" y="-897" type="curve" smooth="yes"/>
      <point x="-489" y="-897"/>
      <point x="-597" y="-784"/>
      <point x="-634" y="-664" type="curve"/>
      <point x="-604" y="-847"/>
      <point x="-338" y="-1033"/>
      <point x="-24" y="-1033" type="curve" smooth="yes"/>
      <point x="468" y="-1033"/>
      <point x="396" y="-428"/>
      <point x="396" y="92" type="curve" smooth="yes"/>
      <point x="413" y="1865" type="line"/>
      <point x="43" y="1865" type="line"/>
      <point x="43" y="1884" type="line"/>
    </contour>
  </outline>
</glyph>
<glyph name="k" format="2">
  <advance width="1373"/>
  <unicode hex="006B"/>
  <outline>
    <contour>
      <point x="1297" y="0" type="line"/>
      <point x="832" y="0" type="line"/>
      <point x="486" y="542" type="line"/>
      <point x="1070" y="920" type="line"/>
      <point x="1084" y="920" type="line"/>
      <point x="780" y="721" type="line"/>
    </contour>
    <contour>
      <point x="719" y="9" type="line"/>
      <point x="1374" y="9" type="line"/>
      <point x="1374" y="0" type="line"/>
      <point x="719" y="0" type="line"/>
    </contour>
    <contour>
      <point x="1246" y="911" type="line"/>
      <point x="799" y="911" type="line"/>
      <point x="799" y="920" type="line"/>
      <point x="1246" y="920" type="line"/>
    </contour>
    <contour>
      <point x="21" y="9" type="line"/>
      <point x="662" y="9" type="line"/>
      <point x="662" y="0" type="line"/>
      <point x="21" y="0" type="line"/>
    </contour>
    <contour>
      <point x="202" y="1491" type="line"/>
      <point x="21" y="1491" type="line"/>
      <point x="21" y="1500" type="line"/>
      <point x="582" y="1500" type="line"/>
      <point x="582" y="0" type="line"/>
      <point x="202" y="0" type="line"/>
    </contour>
  </outline>
</glyph>
<glyph name="l" format="2">
  <advance width="1601"/>
  <unicode hex="006C"/>
  <outline>
    <contour>
      <point x="43" y="19" type="line"/>
      <point x="1559" y="19" type="line"/>
      <point x="1559" y="0" type="line"/>
      <point x="43" y="0" type="line"/>
    </contour>
    <contour>
      <point x="413" y="3053" type="line"/>
      <point x="43" y="3053" type="line"/>
      <point x="43" y="3072" type="line"/>
      <point x="1191" y="3072" type="line"/>
      <point x="1191" y="0" type="line"/>
      <point x="413" y="0" type="line"/>
    </contour>
  </outline>
</glyph>
<glyph name="m" format="2">
  <advance width="1842"/>
  <unicode hex="006D"/>
  <outline>
    <contour>
      <point x="1112" y="638" type="curve" smooth="yes"/>
      <point x="1112" y="0" type="line"/>
      <point x="732" y="0" type="line"/>
      <point x="732" y="650" type="line" smooth="yes"/>
      <point x="732" y="818"/>
      <point x="704" y="842"/>
      <point x="667" y="842" type="curve" smooth="yes"/>
      <point x="594" y="842"/>
      <point x="542" y="657"/>
      <point x="542" y="446" type="curve"/>
      <point x="534" y="446" type="line"/>
      <point x="534" y="652"/>
      <point x="561" y="940"/>
      <point x="847" y="940" type="curve" smooth="yes"/>
      <point x="1041" y="940"/>
      <point x="1112" y="812"/>
    </contour>
    <contour>
      <point x="21" y="9" type="line"/>
      <point x="612" y="9" type="line"/>
      <point x="612" y="0" type="line"/>
      <point x="21" y="0" type="line"/>
    </contour>
    <contour>
      <point x="662" y="9" type="line"/>
      <point x="1181" y="9" type="line"/>
      <point x="1181" y="0" type="line"/>
      <point x="662" y="0" type="line"/>
    </contour>
    <contour>
      <point x="1232" y="9" type="line"/>
      <point x="1822" y="9" type="line"/>
      <point x="1822" y="0" type="line"/>
      <point x="1232" y="0" type="line"/>
    </contour>
    <contour>
      <point x="162" y="911" type="line"/>
      <point x="21" y="911" type="line"/>
      <point x="21" y="920" type="line"/>
      <point x="542" y="920" type="line"/>
      <point x="542" y="0" type="line"/>
      <point x="162" y="0" type="line"/>
    </contour>
    <contour>
      <point x="1681" y="638" type="curve" smooth="yes"/>
      <point x="1681" y="0" type="line"/>
      <point x="1301" y="0" type="line"/>
      <point x="1301" y="650" type="line" smooth="yes"/>
      <point x="1301" y="818"/>
      <point x="1275" y="842"/>
      <point x="1238" y="842" type="curve" smooth="yes"/>
      <point x="1165" y="842"/>
      <point x="1112" y="657"/>
      <point x="1112" y="446" type="curve"/>
      <point x="1104" y="446" type="line"/>
      <point x="1104" y="652"/>
      <point x="1129" y="940"/>
      <point x="1417" y="940" type="curve" smooth="yes"/>
      <point x="1611" y="940"/>
      <point x="1681" y="812"/>
    </contour>
  </outline>
</glyph>
<glyph name="o" format="2">
  <advance width="1138"/>
  <unicode hex="006F"/>
  <outline>
    <contour>
      <point x="442" y="460" type="curve" smooth="yes"/>
      <point x="442" y="172"/>
      <point x="492" y="-10"/>
      <point x="570" y="-10" type="curve" smooth="yes"/>
      <point x="648" y="-10"/>
      <point x="698" y="172"/>
      <point x="698" y="460" type="curve" smooth="yes"/>
      <point x="698" y="748"/>
      <point x="648" y="930"/>
      <point x="570" y="930" type="curve" smooth="yes"/>
      <point x="492" y="930"/>
      <point x="442" y="748"/>
    </contour>
    <contour>
      <point x="51" y="460" type="curve" smooth="yes"/>
      <point x="51" y="720"/>
      <point x="248" y="940"/>
      <point x="570" y="940" type="curve" smooth="yes"/>
      <point x="892" y="940"/>
      <point x="1087" y="720"/>
      <point x="1087" y="460" type="curve" smooth="yes"/>
      <point x="1087" y="200"/>
      <point x="892" y="-20"/>
      <point x="570" y="-20" type="curve" smooth="yes"/>
      <point x="248" y="-20"/>
      <point x="51" y="200"/>
    </contour>
  </outline>
</glyph>
<glyph name="p" format="2">
  <advance width="1327"/>
  <unicode hex="0070"/>
  <outline>
    <contour>
      <point x="534" y="460" type="curve" smooth="yes"/>
      <point x="534" y="764"/>
      <point x="643" y="938"/>
      <point x="853" y="938" type="curve" smooth="yes"/>
      <point x="1071" y="938"/>
      <point x="1278" y="760"/>
      <point x="1278" y="460" type="curve" smooth="yes"/>
      <point x="1278" y="160"/>
      <point x="1071" y="-20"/>
      <point x="853" y="-20" type="curve" smooth="yes"/>
      <point x="645" y="-20"/>
      <point x="534" y="156"/>
    </contour>
    <contour>
      <point x="542" y="460" type="curve" smooth="yes"/>
      <point x="542" y="155"/>
      <point x="667" y="17"/>
      <point x="759" y="17" type="curve" smooth="yes"/>
      <point x="830" y="17"/>
      <point x="847" y="158"/>
      <point x="847" y="460" type="curve" smooth="yes"/>
      <point x="847" y="762"/>
      <point x="831" y="901"/>
      <point x="760" y="901" type="curve" smooth="yes"/>
      <point x="666" y="901"/>
      <point x="542" y="765"/>
    </contour>
    <contour>
      <point x="21" y="-491" type="line"/>
      <point x="681" y="-491" type="line"/>
      <point x="681" y="-500" type="line"/>
      <point x="21" y="-500" type="line"/>
    </contour>
    <contour>
      <point x="162" y="911" type="line"/>
      <point x="21" y="911" type="line"/>
      <point x="21" y="920" type="line"/>
      <point x="542" y="920" type="line"/>
      <point x="542" y="-500" type="line"/>
      <point x="162" y="-500" type="line"/>
    </contour>
  </outline>
</glyph>
<glyph name="q" format="2">
  <advance width="1327"/>
  <unicode hex="0071"/>
  <outline>
    <contour>
      <point x="795" y="458" type="curve" smooth="yes"/>
      <point x="795" y="154"/>
      <point x="685" y="-20"/>
      <point x="475" y="-20" type="curve" smooth="yes"/>
      <point x="257" y="-20"/>
      <point x="51" y="158"/>
      <point x="51" y="458" type="curve" smooth="yes"/>
      <point x="51" y="758"/>
      <point x="257" y="938"/>
      <point x="475" y="938" type="curve" smooth="yes"/>
      <point x="683" y="938"/>
      <point x="795" y="762"/>
    </contour>
    <contour>
      <point x="788" y="458" type="curve" smooth="yes"/>
      <point x="788" y="763"/>
      <point x="663" y="901"/>
      <point x="569" y="901" type="curve" smooth="yes"/>
      <point x="501" y="901"/>
      <point x="482" y="760"/>
      <point x="482" y="458" type="curve" smooth="yes"/>
      <point x="482" y="156"/>
      <point x="501" y="21"/>
      <point x="569" y="21" type="curve" smooth="yes"/>
      <point x="669" y="21"/>
      <point x="788" y="153"/>
    </contour>
    <contour>
      <point x="1307" y="-491" type="line"/>
      <point x="1307" y="-500" type="line"/>
      <point x="648" y="-500" type="line"/>
      <point x="648" y="-491" type="line"/>
    </contour>
    <contour>
      <point x="1307" y="920" type="line"/>
      <point x="1307" y="911" type="line"/>
      <point x="1167" y="911" type="line"/>
      <point x="1167" y="-500" type="line"/>
      <point x="788" y="-500" type="line"/>
      <point x="788" y="920" type="line"/>
    </contour>
  </outline>
</glyph>
<glyph name="r" format="2">
  <advance width="1097"/>
  <unicode hex="0072"/>
  <outline>
    <contour>
      <point x="1045" y="768" type="curve"/>
      <point x="1009" y="869"/>
      <point x="907" y="929"/>
      <point x="808" y="929" type="curve" smooth="yes"/>
      <point x="550" y="929"/>
      <point x="542" y="659"/>
      <point x="542" y="446" type="curve"/>
      <point x="534" y="446" type="line"/>
      <point x="534" y="690"/>
      <point x="549" y="940"/>
      <point x="811" y="940" type="curve" smooth="yes"/>
      <point x="943" y="940"/>
      <point x="1076" y="836"/>
      <point x="1076" y="678" type="curve" smooth="yes"/>
      <point x="1076" y="560"/>
      <point x="996" y="456"/>
      <point x="860" y="456" type="curve" smooth="yes"/>
      <point x="734" y="456"/>
      <point x="641" y="542"/>
      <point x="641" y="666" type="curve" smooth="yes"/>
      <point x="641" y="869"/>
      <point x="917" y="959"/>
    </contour>
    <contour>
      <point x="21" y="9" type="line"/>
      <point x="681" y="9" type="line"/>
      <point x="681" y="0" type="line"/>
      <point x="21" y="0" type="line"/>
    </contour>
    <contour>
      <point x="162" y="911" type="line"/>
      <point x="21" y="911" type="line"/>
      <point x="21" y="920" type="line"/>
      <point x="542" y="920" type="line"/>
      <point x="542" y="0" type="line"/>
      <point x="162" y="0" type="line"/>
    </contour>
  </outline>
</glyph>
<glyph name="s" format="2">
  <advance width="1889"/>
  <unicode hex="0073"/>
  <outline>
    <contour>
      <point x="1554" y="1491" type="curve"/>
      <point x="1481" y="1602"/>
      <point x="1401" y="1683"/>
      <point x="1320" y="1756" type="curve"/>
      <point x="1636" y="1925" type="line"/>
      <point x="1652" y="1925" type="line"/>
      <point x="1652" y="1352" type="line"/>
      <point x="1634" y="1352" type="line"/>
      <point x="1608" y="1398"/>
      <point x="1585" y="1449"/>
    </contour>
    <contour>
      <point x="1649" y="1352" type="curve"/>
      <point x="1634" y="1352" type="line"/>
      <point x="1470" y="1610"/>
      <point x="1267" y="1901"/>
      <point x="872" y="1901" type="curve" smooth="yes"/>
      <point x="652" y="1901"/>
      <point x="535" y="1794"/>
      <point x="535" y="1672" type="curve" smooth="yes"/>
      <point x="535" y="1280"/>
      <point x="1805" y="1434"/>
      <point x="1805" y="623" type="curve" smooth="yes"/>
      <point x="1805" y="136"/>
      <point x="1379" y="-41"/>
      <point x="1023" y="-41" type="curve" smooth="yes"/>
      <point x="597" y="-41"/>
      <point x="331" y="213"/>
      <point x="147" y="655" type="curve"/>
      <point x="163" y="655" type="line"/>
      <point x="357" y="215"/>
      <point x="621" y="-21"/>
      <point x="1017" y="-21" type="curve" smooth="yes"/>
      <point x="1292" y="-21"/>
      <point x="1425" y="100"/>
      <point x="1425" y="232" type="curve" smooth="yes"/>
      <point x="1425" y="612"/>
      <point x="175" y="446"/>
      <point x="175" y="1290" type="curve" smooth="yes"/>
      <point x="175" y="1675"/>
      <point x="482" y="1921"/>
      <point x="871" y="1921" type="curve" smooth="yes"/>
      <point x="1272" y="1921"/>
      <point x="1485" y="1622"/>
    </contour>
    <contour>
      <point x="160" y="-41" type="line"/>
      <point x="143" y="-41" type="line"/>
      <point x="143" y="655" type="line"/>
      <point x="163" y="655" type="line"/>
      <point x="186" y="587"/>
      <point x="210" y="531"/>
      <point x="239" y="467" type="curve"/>
      <point x="322" y="322"/>
      <point x="399" y="240"/>
      <point x="476" y="166" type="curve"/>
    </contour>
  </outline>
</glyph>
<glyph name="t" format="2">
  <advance width="800"/>
  <unicode hex="0074"/>
  <outline>
    <contour>
      <point x="1" y="920" type="line"/>
      <point x="742" y="920" type="line"/>
      <point x="742" y="911" type="line"/>
      <point x="1" y="911" type="line"/>
    </contour>
    <contour>
      <point x="801" y="204" type="line"/>
      <point x="753" y="76"/>
      <point x="631" y="-14"/>
      <point x="429" y="-14" type="curve" smooth="yes"/>
      <point x="205" y="-14"/>
      <point x="148" y="72"/>
      <point x="148" y="242" type="curve" smooth="yes"/>
      <point x="148" y="1120" type="line"/>
      <point x="268" y="1120"/>
      <point x="428" y="1130"/>
      <point x="528" y="1180" type="curve"/>
      <point x="528" y="191" type="line" smooth="yes"/>
      <point x="528" y="91"/>
      <point x="549" y="42"/>
      <point x="603" y="42" type="curve" smooth="yes"/>
      <point x="659" y="42"/>
      <point x="745" y="87"/>
      <point x="793" y="206" type="curve"/>
    </contour>
  </outline>
</glyph>
<glyph name="u" format="2">
  <advance width="1312"/>
  <unicode hex="0075"/>
  <outline>
    <contour>
      <point x="542" y="920" type="line"/>
      <point x="542" y="270" type="line" smooth="yes"/>
      <point x="542" y="102"/>
      <point x="558" y="82"/>
      <point x="614" y="82" type="curve" smooth="yes"/>
      <point x="719" y="82"/>
      <point x="771" y="288"/>
      <point x="771" y="474" type="curve"/>
      <point x="780" y="474" type="line"/>
      <point x="780" y="268"/>
      <point x="732" y="-20"/>
      <point x="446" y="-20" type="curve" smooth="yes"/>
      <point x="232" y="-20"/>
      <point x="162" y="108"/>
      <point x="162" y="282" type="curve" smooth="yes"/>
      <point x="162" y="911" type="line"/>
      <point x="21" y="911" type="line"/>
      <point x="21" y="920" type="line"/>
    </contour>
    <contour>
      <point x="1152" y="9" type="line"/>
      <point x="1292" y="9" type="line"/>
      <point x="1292" y="0" type="line"/>
      <point x="771" y="0" type="line"/>
      <point x="771" y="911" type="line"/>
      <point x="652" y="911" type="line"/>
      <point x="652" y="920" type="line"/>
      <point x="1152" y="920" type="line"/>
    </contour>
  </outline>
</glyph>
<glyph name="v" format="2">
  <advance width="1197"/>
  <unicode hex="0076"/>
  <outline>
    <contour>
      <point x="1208" y="911" type="line"/>
      <point x="820" y="911" type="line"/>
      <point x="820" y="920" type="line"/>
      <point x="1208" y="920" type="line"/>
    </contour>
    <contour>
      <point x="672" y="911" type="line"/>
      <point x="-10" y="911" type="line"/>
      <point x="-10" y="920" type="line"/>
      <point x="672" y="920" type="line"/>
    </contour>
    <contour>
      <point x="758" y="274" type="line"/>
      <point x="1016" y="920" type="line"/>
      <point x="1029" y="920" type="line"/>
      <point x="653" y="-20" type="line"/>
      <point x="506" y="-20" type="line"/>
      <point x="120" y="920" type="line"/>
      <point x="540" y="920" type="line"/>
    </contour>
  </outline>
</glyph>
<glyph name="w" format="2">
  <advance width="1769"/>
  <unicode hex="0077"/>
  <outline>
    <contour>
      <point x="712" y="911" type="line"/>
      <point x="-10" y="911" type="line"/>
      <point x="-10" y="920" type="line"/>
      <point x="712" y="920" type="line"/>
    </contour>
    <contour>
      <point x="1780" y="911" type="line"/>
      <point x="1352" y="911" type="line"/>
      <point x="1352" y="920" type="line"/>
      <point x="1780" y="920" type="line"/>
    </contour>
    <contour>
      <point x="690" y="296" type="line"/>
      <point x="940" y="940" type="line"/>
      <point x="1210" y="940" type="line"/>
      <point x="1382" y="348" type="line"/>
      <point x="1572" y="920" type="line"/>
      <point x="1584" y="920" type="line"/>
      <point x="1270" y="-20" type="line"/>
      <point x="1118" y="-20" type="line"/>
      <point x="849" y="677" type="line"/>
      <point x="579" y="-20" type="line"/>
      <point x="426" y="-20" type="line"/>
      <point x="120" y="920" type="line"/>
      <point x="528" y="920" type="line"/>
    </contour>
  </outline>
</glyph>
<glyph name="y" format="2">
  <advance width="2612"/>
  <unicode hex="0079"/>
  <outline>
    <contour>
      <point x="1663" y="1865" type="line"/>
      <point x="-61" y="1865" type="line"/>
      <point x="-61" y="1884" type="line"/>
      <point x="1663" y="1884" type="line"/>
    </contour>
    <contour>
      <point x="2675" y="1865" type="line"/>
      <point x="1876" y="1865" type="line"/>
      <point x="1876" y="1884" type="line"/>
      <point x="2675" y="1884" type="line"/>
    </contour>
    <contour>
      <point x="1790" y="754" type="line"/>
      <point x="1342" y="-121" type="line"/>
      <point x="242" y="1884" type="line"/>
      <point x="1184" y="1884" type="line"/>
    </contour>
    <contour>
      <point x="1026" y="-732" type="curve"/>
      <point x="2347" y="1884" type="line"/>
      <point x="2370" y="1884" type="line"/>
      <point x="1029" y="-768" type="line" smooth="yes"/>
      <point x="959" y="-907"/>
      <point x="818" y="-1028"/>
      <point x="621" y="-1028" type="curve" smooth="yes"/>
      <point x="396" y="-1028"/>
      <point x="213" y="-877"/>
      <point x="213" y="-639" type="curve" smooth="yes"/>
      <point x="213" y="-422"/>
      <point x="389" y="-221"/>
      <point x="643" y="-221" type="curve" smooth="yes"/>
      <point x="872" y="-221"/>
      <point x="1083" y="-439"/>
    </contour>
  </outline>
</glyph>
<glyph name="z" format="2">
  <advance width="2053"/>
  <unicode hex="007A"/>
  <outline>
    <contour>
      <point x="867" y="1865" type="line" smooth="yes"/>
      <point x="564" y="1865"/>
      <point x="280" y="1594"/>
      <point x="157" y="1180" type="curve"/>
      <point x="139" y="1180" type="line"/>
      <point x="139" y="1884" type="line"/>
      <point x="1945" y="1884" type="line"/>
      <point x="1945" y="1865" type="line"/>
      <point x="875" y="19" type="line"/>
      <point x="1187" y="19" type="line" smooth="yes"/>
      <point x="1584" y="19"/>
      <point x="1867" y="246"/>
      <point x="1990" y="754" type="curve"/>
      <point x="2011" y="754" type="line"/>
      <point x="2011" y="0" type="line"/>
      <point x="23" y="0" type="line"/>
      <point x="23" y="19" type="line"/>
      <point x="1089" y="1865" type="line"/>
    </contour>
  </outline>
</glyph>
<glyph name="bar" format="2">
  <advance width="946"/>
  <unicode hex="007C"/>
  <outline>
    <contour>
      <point x="463" y="3194" type="line"/>
      <point x="484" y="3194" type="line"/>
      <point x="484" y="-1024" type="line"/>
      <point x="463" y="-1024" type="line"/>
    </contour>
  </outline>
</glyph>
<glyph name="asciitilde" format="2">
  <advance width="2818"/>
  <unicode hex="007E"/>
  <outline>
    <contour>
      <point x="796" y="1668" type="curve" smooth="yes"/>
      <point x="579" y="1668"/>
      <point x="429" y="1576"/>
      <point x="429" y="1404" type="curve"/>
      <point x="410" y="1404" type="line"/>
      <point x="410" y="1876"/>
      <point x="614" y="2212"/>
      <point x="1020" y="2212" type="curve" smooth="yes"/>
      <point x="1470" y="2212"/>
      <point x="1549" y="1826"/>
      <point x="1980" y="1826" type="curve" smooth="yes"/>
      <point x="2237" y="1826"/>
      <point x="2389" y="1916"/>
      <point x="2389" y="2088" type="curve"/>
      <point x="2408" y="2088" type="line"/>
      <point x="2408" y="1616"/>
      <point x="2204" y="1282"/>
      <point x="1798" y="1282" type="curve" smooth="yes"/>
      <point x="1278" y="1282"/>
      <point x="1255" y="1668"/>
    </contour>
  </outline>
</glyph>
<glyph name="sterling" format="2">
  <advance width="1373"/>
  <unicode hex="00A3"/>
  <outline>
    <contour>
      <point x="1324" y="554" type="line"/>
      <point x="1324" y="64"/>
      <point x="1202" y="-60"/>
      <point x="924" y="-60" type="curve" smooth="yes"/>
      <point x="650" y="-60"/>
      <point x="500" y="60"/>
      <point x="374" y="60" type="curve" smooth="yes"/>
      <point x="292" y="60"/>
      <point x="175" y="20"/>
      <point x="155" y="-40" type="curve"/>
      <point x="148" y="-40" type="line"/>
      <point x="168" y="108"/>
      <point x="418" y="434"/>
      <point x="644" y="434" type="curve" smooth="yes"/>
      <point x="804" y="434"/>
      <point x="901" y="366"/>
      <point x="1013" y="366" type="curve" smooth="yes"/>
      <point x="1173" y="366"/>
      <point x="1315" y="390"/>
      <point x="1315" y="554" type="curve"/>
    </contour>
    <contour>
      <point x="930" y="795" type="line"/>
      <point x="930" y="785" type="line"/>
      <point x="30" y="785" type="line"/>
      <point x="30" y="795" type="line"/>
    </contour>
    <contour>
      <point x="156" y="1100" type="curve" smooth="yes"/>
      <point x="156" y="1380"/>
      <point x="386" y="1520"/>
      <point x="768" y="1520" type="curve" smooth="yes"/>
      <point x="1092" y="1520"/>
      <point x="1304" y="1306"/>
      <point x="1304" y="1142" type="curve" smooth="yes"/>
      <point x="1304" y="1000"/>
      <point x="1214" y="888"/>
      <point x="1084" y="888" type="curve" smooth="yes"/>
      <point x="954" y="888"/>
      <point x="832" y="980"/>
      <point x="832" y="1120" type="curve" smooth="yes"/>
      <point x="832" y="1250"/>
      <point x="948" y="1350"/>
      <point x="1066" y="1350" type="curve" smooth="yes"/>
      <point x="1181" y="1350"/>
      <point x="1235" y="1285"/>
      <point x="1260" y="1249" type="curve"/>
      <point x="1193" y="1384"/>
      <point x="1030" y="1492"/>
      <point x="848" y="1492" type="curve" smooth="yes"/>
      <point x="710" y="1492"/>
      <point x="618" y="1408"/>
      <point x="618" y="1220" type="curve" smooth="yes"/>
      <point x="618" y="1022"/>
      <point x="730" y="970"/>
      <point x="730" y="780" type="curve" smooth="yes"/>
      <point x="730" y="400"/>
      <point x="128" y="410"/>
      <point x="154" y="-40" type="curve"/>
      <point x="144" y="-40" type="line"/>
      <point x="106" y="238"/>
      <point x="318" y="394"/>
      <point x="318" y="522" type="curve" smooth="yes"/>
      <point x="318" y="750"/>
      <point x="156" y="870"/>
    </contour>
  </outline>
</glyph>
<glyph name="guillemotleft" format="2">
  <advance width="3092"/>
  <unicode hex="00AB"/>
  <outline>
    <contour>
      <point x="2256" y="1590" type="line"/>
      <point x="2856" y="604" type="line"/>
      <point x="2846" y="594" type="line"/>
      <point x="1250" y="1573" type="line"/>
      <point x="1250" y="1601" type="line"/>
      <point x="2846" y="2580" type="line"/>
      <point x="2856" y="2571" type="line"/>
    </contour>
    <contour>
      <point x="1028" y="1590" type="line"/>
      <point x="1710" y="604" type="line"/>
      <point x="1700" y="594" type="line"/>
      <point x="102" y="1573" type="line"/>
      <point x="102" y="1601" type="line"/>
      <point x="1700" y="2580" type="line"/>
      <point x="1710" y="2571" type="line"/>
    </contour>
  </outline>
</glyph>
<glyph name="registered" format="2">
  <advance width="1739"/>
  <unicode hex="00AE"/>
  <outline>
    <contour>
      <point x="100" y="750" type="curve" smooth="yes"/>
      <point x="100" y="1176"/>
      <point x="444" y="1520"/>
      <point x="870" y="1520" type="curve" smooth="yes"/>
      <point x="1296" y="1520"/>
      <point x="1640" y="1176"/>
      <point x="1640" y="750" type="curve" smooth="yes"/>
      <point x="1640" y="324"/>
      <point x="1296" y="-20"/>
      <point x="870" y="-20" type="curve" smooth="yes"/>
      <point x="444" y="-20"/>
      <point x="100" y="324"/>
    </contour>
    <contour>
      <point x="109" y="750" type="curve" smooth="yes"/>
      <point x="109" y="331"/>
      <point x="451" y="-10"/>
      <point x="870" y="-10" type="curve" smooth="yes"/>
      <point x="1289" y="-10"/>
      <point x="1630" y="331"/>
      <point x="1630" y="750" type="curve" smooth="yes"/>
      <point x="1630" y="1169"/>
      <point x="1289" y="1510"/>
      <point x="870" y="1510" type="curve" smooth="yes"/>
      <point x="451" y="1510"/>
      <point x="109" y="1169"/>
    </contour>
    <component base="R" xScale="0.6" yScale="0.6" xOffset="416" yOffset="296"/>
  </outline>
</glyph>
<glyph name="acute" format="2">
  <advance width="1740"/>
  <unicode hex="00B4"/>
  <outline>
    <contour>
      <point x="1126" y="2786" type="curve" smooth="yes"/>
      <point x="243" y="2980" type="line"/>
      <point x="237" y="3000" type="line"/>
      <point x="1086" y="3392" type="line" smooth="yes"/>
      <point x="1287" y="3485"/>
      <point x="1516" y="3292"/>
      <point x="1516" y="3092" type="curve" smooth="yes"/>
      <point x="1516" y="2892"/>
      <point x="1325" y="2741"/>
    </contour>
  </outline>
</glyph>
<glyph name="mu" format="2">
  <advance width="1312"/>
  <unicode hex="00B5"/>
  <outline>
    <contour>
      <point x="491" y="-246" type="curve" smooth="yes"/>
      <point x="557" y="-246"/>
      <point x="609" y="-304"/>
      <point x="609" y="-380" type="curve" smooth="yes"/>
      <point x="609" y="-458"/>
      <point x="567" y="-520"/>
      <point x="421" y="-520" type="curve" smooth="yes"/>
      <point x="281" y="-520"/>
      <point x="161" y="-422"/>
      <point x="161" y="-242" type="curve" smooth="yes"/>
      <point x="161" y="642" type="line"/>
      <point x="170" y="642" type="line"/>
      <point x="170" y="-242" type="line" smooth="yes"/>
      <point x="170" y="-416"/>
      <point x="290" y="-528"/>
      <point x="462" y="-507" type="curve"/>
      <point x="462" y="-507" type="line"/>
      <point x="414" y="-489"/>
      <point x="371" y="-444"/>
      <point x="371" y="-371" type="curve" smooth="yes"/>
      <point x="371" y="-305"/>
      <point x="425" y="-246"/>
    </contour>
    <component base="u"/>
  </outline>
</glyph>
<glyph name="cedilla" format="2">
  <advance width="1099"/>
  <unicode hex="00B8"/>
  <outline>
    <contour>
      <point x="578" y="-280" type="curve" smooth="yes"/>
      <point x="578" y="-174"/>
      <point x="502" y="-158"/>
      <point x="432" y="-158" type="curve"/>
      <point x="613" y="82" type="line"/>
      <point x="625" y="82" type="line"/>
      <point x="505" y="-78" type="line"/>
      <point x="746" y="-84"/>
      <point x="880" y="-128"/>
      <point x="880" y="-240" type="curve" smooth="yes"/>
      <point x="880" y="-340"/>
      <point x="784" y="-440"/>
      <point x="422" y="-440" type="curve"/>
      <point x="422" y="-430" type="line"/>
      <point x="540" y="-430"/>
      <point x="578" y="-366"/>
    </contour>
  </outline>
</glyph>
<glyph name="onequarter" format="2">
  <advance width="1401"/>
  <unicode hex="00BC"/>
  <outline>
    <contour>
      <point x="1050" y="1300" type="line"/>
      <point x="1060" y="1300" type="line"/>
      <point x="92" y="-200" type="line"/>
      <point x="83" y="-200" type="line"/>
    </contour>
    <component base="four" xScale="0.6" yScale="0.6" xOffset="540" yOffset="-206"/>
    <component base="one" xScale="0.6" yScale="0.6" xOffset="-16" yOffset="712"/>
  </outline>
</glyph>
<glyph name="threequarters" format="2">
  <advance width="1521"/>
  <unicode hex="00BE"/>
  <outline>
    <contour>
      <point x="1168" y="1300" type="line"/>
      <point x="1177" y="1300" type="line"/>
      <point x="209" y="-200" type="line"/>
      <point x="201" y="-200" type="line"/>
    </contour>
    <component base="three" xScale="0.6" yScale="0.6" xOffset="10" yOffset="708"/>
    <component base="four" xScale="0.6" yScale="0.6" xOffset="660" yOffset="-206"/>
  </outline>
</glyph>
<glyph name="AE" format="2">
  <advance width="4468"/>
  <unicode hex="00C6"/>
  <outline>
    <contour>
      <point x="2145" y="3072" type="line"/>
      <point x="2168" y="3072" type="line"/>
      <point x="443" y="0" type="line"/>
      <point x="419" y="0" type="line"/>
    </contour>
    <contour>
      <point x="62" y="19" type="line"/>
      <point x="962" y="19" type="line"/>
      <point x="962" y="0" type="line"/>
      <point x="62" y="0" type="line"/>
    </contour>
    <contour>
      <point x="1004" y="1013" type="line"/>
      <point x="2192" y="1013" type="line"/>
      <point x="2192" y="994" type="line"/>
      <point x="999" y="994" type="line"/>
    </contour>
    <contour>
      <point x="2150" y="3072" type="line"/>
      <point x="3032" y="3072" type="line"/>
      <point x="3032" y="0" type="line"/>
      <point x="2150" y="0" type="line"/>
    </contour>
    <contour>
      <point x="2150" y="3072" type="line"/>
      <point x="4305" y="3072" type="line"/>
      <point x="4305" y="2232" type="line"/>
      <point x="4286" y="2232" type="line"/>
      <point x="4164" y="2670"/>
      <point x="3756" y="3053"/>
      <point x="3318" y="3053" type="curve" smooth="yes"/>
      <point x="2150" y="3053" type="line"/>
    </contour>
    <contour>
      <point x="4347" y="0" type="line"/>
      <point x="1782" y="0" type="line"/>
      <point x="1782" y="19" type="line"/>
      <point x="3276" y="19" type="line" smooth="yes"/>
      <point x="3796" y="19"/>
      <point x="4206" y="402"/>
      <point x="4328" y="922" type="curve"/>
      <point x="4347" y="922" type="line"/>
    </contour>
    <contour>
      <point x="3714" y="1016" type="line"/>
      <point x="3592" y="1290"/>
      <point x="3306" y="1580"/>
      <point x="3072" y="1580" type="curve" smooth="yes"/>
      <point x="2826" y="1580" type="line"/>
      <point x="2826" y="1599" type="line"/>
      <point x="3072" y="1599" type="line" smooth="yes"/>
      <point x="3306" y="1599"/>
      <point x="3592" y="1868"/>
      <point x="3714" y="2142" type="curve"/>
      <point x="3732" y="2142" type="line"/>
      <point x="3732" y="1016" type="line"/>
    </contour>
  </outline>
</glyph>
<glyph name="germandbls" format="2">
  <advance width="1721"/>
  <unicode hex="00DF"/>
  <outline>
    <contour>
      <point x="926" y="807" type="curve"/>
      <point x="926" y="814" type="line"/>
      <point x="1104" y="814"/>
      <point x="1140" y="1014"/>
      <point x="1140" y="1142" type="curve" smooth="yes"/>
      <point x="1140" y="1286"/>
      <point x="1094" y="1509"/>
      <point x="906" y="1509" type="curve" smooth="yes"/>
      <point x="678" y="1509"/>
      <point x="630" y="1246"/>
      <point x="630" y="962" type="curve" smooth="yes"/>
      <point x="630" y="0" type="line"/>
      <point x="210" y="0" type="line"/>
      <point x="210" y="982" type="line" smooth="yes"/>
      <point x="210" y="1368"/>
      <point x="600" y="1520"/>
      <point x="926" y="1520" type="curve" smooth="yes"/>
      <point x="1212" y="1520"/>
      <point x="1582" y="1408"/>
      <point x="1582" y="1162" type="curve" smooth="yes"/>
      <point x="1582" y="922"/>
      <point x="1328" y="807"/>
    </contour>
    <contour>
      <point x="30" y="9" type="line"/>
      <point x="807" y="9" type="line"/>
      <point x="807" y="0" type="line"/>
      <point x="30" y="0" type="line"/>
    </contour>
    <contour>
      <point x="1642" y="380" type="curve" smooth="yes"/>
      <point x="1642" y="100"/>
      <point x="1364" y="-20"/>
      <point x="1082" y="-20" type="curve" smooth="yes"/>
      <point x="860" y="-20"/>
      <point x="706" y="128"/>
      <point x="706" y="352" type="curve" smooth="yes"/>
      <point x="706" y="494"/>
      <point x="820" y="562"/>
      <point x="930" y="562" type="curve" smooth="yes"/>
      <point x="1030" y="562"/>
      <point x="1138" y="502"/>
      <point x="1138" y="370" type="curve" smooth="yes"/>
      <point x="1138" y="246"/>
      <point x="1022" y="180"/>
      <point x="924" y="180" type="curve" smooth="yes"/>
      <point x="827" y="180"/>
      <point x="733" y="241"/>
      <point x="717" y="334" type="curve"/>
      <point x="722" y="127"/>
      <point x="874" y="-4"/>
      <point x="1032" y="-4" type="curve" smooth="yes"/>
      <point x="1170" y="-4"/>
      <point x="1200" y="192"/>
      <point x="1200" y="320" type="curve" smooth="yes"/>
      <point x="1200" y="508"/>
      <point x="1184" y="806"/>
      <point x="926" y="806" type="curve"/>
      <point x="926" y="812" type="line"/>
      <point x="1408" y="812"/>
      <point x="1642" y="640"/>
    </contour>
  </outline>
</glyph>
<glyph name="ae" format="2">
  <advance width="1805"/>
  <unicode hex="00E6"/>
  <outline>
    <contour>
      <point x="140" y="712" type="curve" smooth="yes"/>
      <point x="140" y="846"/>
      <point x="314" y="936"/>
      <point x="536" y="936" type="curve" smooth="yes"/>
      <point x="796" y="936"/>
      <point x="992" y="812"/>
      <point x="992" y="610" type="curve"/>
      <point x="1002" y="362" type="line"/>
      <point x="1002" y="114"/>
      <point x="722" y="-20"/>
      <point x="480" y="-20" type="curve" smooth="yes"/>
      <point x="202" y="-20"/>
      <point x="70" y="78"/>
      <point x="70" y="226" type="curve" smooth="yes"/>
      <point x="70" y="394"/>
      <point x="224" y="522"/>
      <point x="508" y="522" type="curve" smooth="yes"/>
      <point x="956" y="522" type="line"/>
      <point x="956" y="512" type="line"/>
      <point x="648" y="512" type="line" smooth="yes"/>
      <point x="556" y="512"/>
      <point x="474" y="390"/>
      <point x="474" y="226" type="curve" smooth="yes"/>
      <point x="474" y="92"/>
      <point x="512" y="-4"/>
      <point x="562" y="-4" type="curve" smooth="yes"/>
      <point x="616" y="-4"/>
      <point x="672" y="100"/>
      <point x="672" y="262" type="curve" smooth="yes"/>
      <point x="672" y="610" type="line" smooth="yes"/>
      <point x="672" y="744"/>
      <point x="630" y="924"/>
      <point x="470" y="924" type="curve" smooth="yes"/>
      <point x="394" y="924"/>
      <point x="272" y="888"/>
      <point x="227" y="840" type="curve"/>
      <point x="388" y="925"/>
      <point x="562" y="840"/>
      <point x="562" y="716" type="curve" smooth="yes"/>
      <point x="562" y="616"/>
      <point x="454" y="542"/>
      <point x="344" y="542" type="curve" smooth="yes"/>
      <point x="224" y="542"/>
      <point x="140" y="620"/>
    </contour>
    <contour>
      <point x="1372" y="525" type="line"/>
      <point x="1370" y="718"/>
      <point x="1368" y="930"/>
      <point x="1290" y="930" type="curve" smooth="yes"/>
      <point x="1212" y="930"/>
      <point x="1190" y="728"/>
      <point x="1190" y="500" type="curve" smooth="yes"/>
      <point x="1190" y="272"/>
      <point x="1207" y="4"/>
      <point x="1368" y="4" type="curve" smooth="yes"/>
      <point x="1558" y="4"/>
      <point x="1696" y="118"/>
      <point x="1747" y="286" type="curve"/>
      <point x="1756" y="286" type="line"/>
      <point x="1704" y="112"/>
      <point x="1558" y="-20"/>
      <point x="1296" y="-20" type="curve" smooth="yes"/>
      <point x="1054" y="-20"/>
      <point x="860" y="140"/>
      <point x="860" y="460" type="curve" smooth="yes"/>
      <point x="860" y="780"/>
      <point x="1048" y="940"/>
      <point x="1290" y="940" type="curve" smooth="yes"/>
      <point x="1588" y="940"/>
      <point x="1754" y="734"/>
      <point x="1754" y="516" type="curve"/>
      <point x="1048" y="516" type="line"/>
      <point x="1048" y="525" type="line"/>
    </contour>
  </outline>
</glyph>
<glyph name="eth" format="2">
  <advance width="1319"/>
  <unicode hex="00F0"/>
  <outline>
    <contour>
      <point x="300" y="1260" type="line"/>
      <point x="1240" y="1260" type="line"/>
      <point x="1240" y="1250" type="line"/>
      <point x="300" y="1250" type="line"/>
    </contour>
    <contour>
      <point x="1220" y="620" type="curve" smooth="yes"/>
      <point x="1220" y="200"/>
      <point x="974" y="-20"/>
      <point x="632" y="-20" type="curve" smooth="yes"/>
      <point x="290" y="-20"/>
      <point x="60" y="200"/>
      <point x="60" y="500" type="curve" smooth="yes"/>
      <point x="60" y="840"/>
      <point x="316" y="990"/>
      <point x="558" y="990" type="curve" smooth="yes"/>
      <point x="725" y="990"/>
      <point x="768" y="814"/>
      <point x="768" y="560" type="curve"/>
      <point x="760" y="560" type="line"/>
      <point x="760" y="860"/>
      <point x="690" y="957"/>
      <point x="624" y="957" type="curve" smooth="yes"/>
      <point x="546" y="957"/>
      <point x="520" y="868"/>
      <point x="520" y="500" type="curve" smooth="yes"/>
      <point x="520" y="172"/>
      <point x="528" y="-10"/>
      <point x="626" y="-10" type="curve" smooth="yes"/>
      <point x="724" y="-10"/>
      <point x="760" y="192"/>
      <point x="760" y="560" type="curve"/>
      <point x="762" y="667" type="line"/>
      <point x="762" y="1011"/>
      <point x="578" y="1511"/>
      <point x="210" y="1511" type="curve"/>
      <point x="210" y="1520" type="line"/>
      <point x="794" y="1520"/>
      <point x="1220" y="1142"/>
    </contour>
  </outline>
</glyph>
<glyph name="divide" format="2">
  <advance width="1319"/>
  <unicode hex="00F7"/>
  <outline>
    <contour>
      <point x="80" y="795" type="line"/>
      <point x="1239" y="795" type="line"/>
      <point x="1239" y="785" type="line"/>
      <point x="80" y="785" type="line"/>
    </contour>
    <contour>
      <point x="420" y="360" type="curve" smooth="yes"/>
      <point x="420" y="492"/>
      <point x="528" y="600"/>
      <point x="660" y="600" type="curve" smooth="yes"/>
      <point x="792" y="600"/>
      <point x="899" y="492"/>
      <point x="899" y="360" type="curve" smooth="yes"/>
      <point x="899" y="228"/>
      <point x="792" y="120"/>
      <point x="660" y="120" type="curve" smooth="yes"/>
      <point x="528" y="120"/>
      <point x="420" y="228"/>
    </contour>
    <contour>
      <point x="420" y="1190" type="curve" smooth="yes"/>
      <point x="420" y="1322"/>
      <point x="528" y="1430"/>
      <point x="660" y="1430" type="curve" smooth="yes"/>
      <point x="792" y="1430"/>
      <point x="899" y="1322"/>
      <point x="899" y="1190" type="curve" smooth="yes"/>
      <point x="899" y="1058"/>
      <point x="792" y="950"/>
      <point x="660" y="950" type="curve" smooth="yes"/>
      <point x="528" y="950"/>
      <point x="420" y="1058"/>
    </contour>
  </outline>
</glyph>
<glyph name="thorn" format="2">
  <advance width="1345"/>
  <unicode hex="00FE"/>
  <outline>
    <contour>
      <point x="542" y="460" type="curve" smooth="yes"/>
      <point x="542" y="764"/>
      <point x="653" y="938"/>
      <point x="862" y="938" type="curve" smooth="yes"/>
      <point x="1080" y="938"/>
      <point x="1286" y="760"/>
      <point x="1286" y="460" type="curve" smooth="yes"/>
      <point x="1286" y="160"/>
      <point x="1080" y="-20"/>
      <point x="862" y="-20" type="curve" smooth="yes"/>
      <point x="654" y="-20"/>
      <point x="542" y="156"/>
    </contour>
    <contour>
      <point x="550" y="460" type="curve" smooth="yes"/>
      <point x="550" y="158"/>
      <point x="673" y="18"/>
      <point x="771" y="18" type="curve" smooth="yes"/>
      <point x="839" y="18"/>
      <point x="856" y="153"/>
      <point x="856" y="460" type="curve" smooth="yes"/>
      <point x="856" y="767"/>
      <point x="839" y="900"/>
      <point x="771" y="900" type="curve" smooth="yes"/>
      <point x="673" y="900"/>
      <point x="550" y="762"/>
    </contour>
    <contour>
      <point x="30" y="-491" type="line"/>
      <point x="690" y="-491" type="line"/>
      <point x="690" y="-500" type="line"/>
      <point x="30" y="-500" type="line"/>
    </contour>
    <contour>
      <point x="170" y="1491" type="line"/>
      <point x="30" y="1491" type="line"/>
      <point x="30" y="1500" type="line"/>
      <point x="550" y="1500" type="line"/>
      <point x="550" y="-500" type="line"/>
      <point x="170" y="-500" type="line"/>
    </contour>
  </outline>
</glyph>
<glyph name="kgreenlandic" format="2">
  <advance width="1391"/>
  <unicode hex="0138"/>
  <outline>
    <contour>
      <point x="1306" y="0" type="line"/>
      <point x="840" y="0" type="line"/>
      <point x="494" y="542" type="line"/>
      <point x="1078" y="920" type="line"/>
      <point x="1091" y="920" type="line"/>
      <point x="786" y="721" type="line"/>
    </contour>
    <contour>
      <point x="728" y="9" type="line"/>
      <point x="1382" y="9" type="line"/>
      <point x="1382" y="0" type="line"/>
      <point x="728" y="0" type="line"/>
    </contour>
    <contour>
      <point x="1254" y="911" type="line"/>
      <point x="808" y="911" type="line"/>
      <point x="808" y="920" type="line"/>
      <point x="1254" y="920" type="line"/>
    </contour>
    <contour>
      <point x="30" y="9" type="line"/>
      <point x="670" y="9" type="line"/>
      <point x="670" y="0" type="line"/>
      <point x="30" y="0" type="line"/>
    </contour>
    <contour>
      <point x="210" y="911" type="line"/>
      <point x="30" y="911" type="line"/>
      <point x="30" y="920" type="line"/>
      <point x="590" y="920" type="line"/>
      <point x="590" y="0" type="line"/>
      <point x="210" y="0" type="line"/>
    </contour>
  </outline>
</glyph>
<glyph name="lslash" format="2">
  <advance width="781"/>
  <unicode hex="0142"/>
  <outline>
    <contour>
      <point x="20" y="720" type="line"/>
      <point x="791" y="1160" type="line"/>
      <point x="791" y="1150" type="line"/>
      <point x="20" y="709" type="line"/>
    </contour>
    <component base="l"/>
  </outline>
</glyph>
<glyph name="uni0237" format="2">
  <advance width="728"/>
  <unicode hex="0237"/>
  <outline>
    <contour>
      <point x="588" y="920" type="line"/>
      <point x="588" y="-24" type="line" smooth="yes"/>
      <point x="588" y="-286"/>
      <point x="334" y="-520"/>
      <point x="34" y="-520" type="curve" smooth="yes"/>
      <point x="-168" y="-520"/>
      <point x="-332" y="-412"/>
      <point x="-332" y="-262" type="curve" smooth="yes"/>
      <point x="-332" y="-142"/>
      <point x="-232" y="-58"/>
      <point x="-118" y="-58" type="curve" smooth="yes"/>
      <point x="-8" y="-58"/>
      <point x="94" y="-126"/>
      <point x="94" y="-246" type="curve" smooth="yes"/>
      <point x="94" y="-356"/>
      <point x="14" y="-438"/>
      <point x="-124" y="-438" type="curve" smooth="yes"/>
      <point x="-233" y="-438"/>
      <point x="-285" y="-383"/>
      <point x="-303" y="-324" type="curve"/>
      <point x="-288" y="-413"/>
      <point x="-159" y="-504"/>
      <point x="-6" y="-504" type="curve" smooth="yes"/>
      <point x="234" y="-504"/>
      <point x="200" y="-209"/>
      <point x="200" y="45" type="curve" smooth="yes"/>
      <point x="208" y="911" type="line"/>
      <point x="28" y="911" type="line"/>
      <point x="28" y="920" type="line"/>
    </contour>
  </outline>
</glyph>
<glyph name="circumflex" format="2">
  <advance width="929"/>
  <unicode hex="02C6"/>
  <outline>
    <contour>
      <point x="464" y="1350" type="line"/>
      <point x="104" y="1215" type="line"/>
      <point x="100" y="1220" type="line"/>
      <point x="360" y="1540" type="line"/>
      <point x="570" y="1540" type="line"/>
      <point x="830" y="1220" type="line"/>
      <point x="825" y="1215" type="line"/>
    </contour>
  </outline>
</glyph>
<glyph name="caron" format="2">
  <advance width="1904"/>
  <unicode hex="02C7"/>
  <outline>
    <contour>
      <point x="954" y="2928" type="line"/>
      <point x="1690" y="3204" type="line"/>
      <point x="1700" y="3194" type="line"/>
      <point x="1168" y="2540" type="line"/>
      <point x="738" y="2540" type="line"/>
      <point x="204" y="3194" type="line"/>
      <point x="214" y="3204" type="line"/>
    </contour>
  </outline>
</glyph>
<glyph name="breve" format="2">
  <advance width="639"/>
  <unicode hex="02D8"/>
  <outline>
    <contour>
      <point x="70" y="1518" type="line"/>
      <point x="70" y="1430"/>
      <point x="212" y="1410"/>
      <point x="320" y="1410" type="curve" smooth="yes"/>
      <point x="428" y="1410"/>
      <point x="571" y="1430"/>
      <point x="571" y="1518" type="curve"/>
      <point x="580" y="1518" type="line"/>
      <point x="580" y="1256"/>
      <point x="480" y="1140"/>
      <point x="320" y="1140" type="curve" smooth="yes"/>
      <point x="160" y="1140"/>
      <point x="60" y="1256"/>
      <point x="60" y="1518" type="curve"/>
    </contour>
  </outline>
</glyph>
<glyph name="ring" format="2">
  <advance width="1310"/>
  <unicode hex="02DA"/>
  <outline>
    <contour>
      <point x="204" y="2786" type="curve" smooth="yes"/>
      <point x="204" y="2994"/>
      <point x="366" y="3154"/>
      <point x="656" y="3154" type="curve" smooth="yes"/>
      <point x="946" y="3154"/>
      <point x="1106" y="2994"/>
      <point x="1106" y="2786" type="curve" smooth="yes"/>
      <point x="1106" y="2578"/>
      <point x="946" y="2416"/>
      <point x="656" y="2416" type="curve" smooth="yes"/>
      <point x="366" y="2416"/>
      <point x="204" y="2578"/>
    </contour>
    <contour>
      <point x="552" y="2786" type="curve" smooth="yes"/>
      <point x="552" y="2538"/>
      <point x="586" y="2435"/>
      <point x="656" y="2435" type="curve" smooth="yes"/>
      <point x="726" y="2435"/>
      <point x="758" y="2538"/>
      <point x="758" y="2786" type="curve" smooth="yes"/>
      <point x="758" y="3034"/>
      <point x="726" y="3135"/>
      <point x="656" y="3135" type="curve" smooth="yes"/>
      <point x="586" y="3135"/>
      <point x="552" y="3034"/>
    </contour>
  </outline>
</glyph>
<glyph name="ogonek" format="2">
  <advance width="1099"/>
  <unicode hex="02DB"/>
  <outline>
    <contour>
      <point x="826" y="-266" type="line"/>
      <point x="796" y="-322"/>
      <point x="758" y="-412"/>
      <point x="556" y="-412" type="curve" smooth="yes"/>
      <point x="394" y="-412"/>
      <point x="280" y="-360"/>
      <point x="280" y="-240" type="curve" smooth="yes"/>
      <point x="280" y="-80"/>
      <point x="516" y="38"/>
      <point x="698" y="88" type="curve"/>
      <point x="701" y="81" type="line"/>
      <point x="679" y="67"/>
      <point x="626" y="-23"/>
      <point x="626" y="-168" type="curve" smooth="yes"/>
      <point x="626" y="-300"/>
      <point x="674" y="-355"/>
      <point x="722" y="-355" type="curve" smooth="yes"/>
      <point x="765" y="-355"/>
      <point x="791" y="-318"/>
      <point x="820" y="-262" type="curve"/>
    </contour>
  </outline>
</glyph>
<glyph name="uni1E9E" format="2">
  <advance width="1961"/>
  <unicode hex="1E9E"/>
  <outline>
    <contour>
      <point x="30" y="9" type="line"/>
      <point x="830" y="9" type="line"/>
      <point x="830" y="0" type="line"/>
      <point x="30" y="0" type="line"/>
    </contour>
    <contour>
      <point x="1406" y="776" type="line"/>
      <point x="1272" y="803"/>
      <point x="1130" y="825"/>
      <point x="986" y="830" type="curve"/>
      <point x="1492" y="1463" type="line"/>
      <point x="1436" y="1483"/>
      <point x="1314" y="1509"/>
      <point x="1186" y="1509" type="curve" smooth="yes"/>
      <point x="758" y="1509"/>
      <point x="650" y="1266"/>
      <point x="650" y="862" type="curve" smooth="yes"/>
      <point x="650" y="0" type="line"/>
      <point x="210" y="0" type="line"/>
      <point x="210" y="882" type="line" smooth="yes"/>
      <point x="210" y="1328"/>
      <point x="640" y="1520"/>
      <point x="1186" y="1520" type="curve" smooth="yes"/>
      <point x="1492" y="1520"/>
      <point x="1742" y="1388"/>
      <point x="1822" y="1302" type="curve"/>
    </contour>
    <contour>
      <point x="788" y="311" type="curve"/>
      <point x="823" y="137"/>
      <point x="998" y="3"/>
      <point x="1202" y="3" type="curve" smooth="yes"/>
      <point x="1390" y="3"/>
      <point x="1440" y="172"/>
      <point x="1440" y="420" type="curve" smooth="yes"/>
      <point x="1440" y="628"/>
      <point x="1324" y="821"/>
      <point x="986" y="821" type="curve"/>
      <point x="986" y="830" type="line"/>
      <point x="1628" y="830"/>
      <point x="1882" y="690"/>
      <point x="1882" y="430" type="curve" smooth="yes"/>
      <point x="1882" y="150"/>
      <point x="1604" y="-20"/>
      <point x="1282" y="-20" type="curve" smooth="yes"/>
      <point x="938" y="-20"/>
      <point x="770" y="188"/>
      <point x="770" y="372" type="curve" smooth="yes"/>
      <point x="770" y="514"/>
      <point x="870" y="612"/>
      <point x="1000" y="612" type="curve" smooth="yes"/>
      <point x="1120" y="612"/>
      <point x="1208" y="524"/>
      <point x="1208" y="392" type="curve" smooth="yes"/>
      <point x="1208" y="268"/>
      <point x="1102" y="180"/>
      <point x="984" y="180" type="curve" smooth="yes"/>
      <point x="888" y="180"/>
      <point x="816" y="249"/>
    </contour>
  </outline>
</glyph>
<glyph name="uni2031" format="2">
  <advance width="4119"/>
  <unicode hex="2031"/>
  <outline>
    <contour>
      <point x="3490" y="420" type="curve" smooth="yes"/>
      <point x="3490" y="79"/>
      <point x="3522" y="-13"/>
      <point x="3570" y="-13" type="curve" smooth="yes"/>
      <point x="3618" y="-13"/>
      <point x="3650" y="79"/>
      <point x="3650" y="420" type="curve" smooth="yes"/>
      <point x="3650" y="761"/>
      <point x="3618" y="854"/>
      <point x="3570" y="854" type="curve" smooth="yes"/>
      <point x="3522" y="854"/>
      <point x="3490" y="761"/>
    </contour>
    <contour>
      <point x="3090" y="420" type="curve" smooth="yes"/>
      <point x="3090" y="706"/>
      <point x="3344" y="860"/>
      <point x="3570" y="860" type="curve" smooth="yes"/>
      <point x="3796" y="860"/>
      <point x="4050" y="706"/>
      <point x="4050" y="420" type="curve" smooth="yes"/>
      <point x="4050" y="134"/>
      <point x="3756" y="-20"/>
      <point x="3570" y="-20" type="curve" smooth="yes"/>
      <point x="3344" y="-20"/>
      <point x="3090" y="134"/>
    </contour>
    <contour>
      <point x="2470" y="420" type="curve" smooth="yes"/>
      <point x="2470" y="79"/>
      <point x="2502" y="-13"/>
      <point x="2550" y="-13" type="curve" smooth="yes"/>
      <point x="2598" y="-13"/>
      <point x="2630" y="79"/>
      <point x="2630" y="420" type="curve" smooth="yes"/>
      <point x="2630" y="761"/>
      <point x="2598" y="854"/>
      <point x="2550" y="854" type="curve" smooth="yes"/>
      <point x="2502" y="854"/>
      <point x="2470" y="761"/>
    </contour>
    <contour>
      <point x="2070" y="420" type="curve" smooth="yes"/>
      <point x="2070" y="706"/>
      <point x="2324" y="860"/>
      <point x="2550" y="860" type="curve" smooth="yes"/>
      <point x="2776" y="860"/>
      <point x="3030" y="706"/>
      <point x="3030" y="420" type="curve" smooth="yes"/>
      <point x="3030" y="134"/>
      <point x="2736" y="-20"/>
      <point x="2550" y="-20" type="curve" smooth="yes"/>
      <point x="2324" y="-20"/>
      <point x="2070" y="134"/>
    </contour>
    <contour>
      <point x="1450" y="420" type="curve" smooth="yes"/>
      <point x="1450" y="79"/>
      <point x="1482" y="-13"/>
      <point x="1530" y="-13" type="curve" smooth="yes"/>
      <point x="1578" y="-13"/>
      <point x="1610" y="79"/>
      <point x="1610" y="420" type="curve" smooth="yes"/>
      <point x="1610" y="761"/>
      <point x="1578" y="854"/>
      <point x="1530" y="854" type="curve" smooth="yes"/>
      <point x="1482" y="854"/>
      <point x="1450" y="761"/>
    </contour>
    <contour>
      <point x="1050" y="420" type="curve" smooth="yes"/>
      <point x="1050" y="706"/>
      <point x="1304" y="860"/>
      <point x="1530" y="860" type="curve" smooth="yes"/>
      <point x="1756" y="860"/>
      <point x="2010" y="706"/>
      <point x="2010" y="420" type="curve" smooth="yes"/>
      <point x="2010" y="134"/>
      <point x="1716" y="-20"/>
      <point x="1530" y="-20" type="curve" smooth="yes"/>
      <point x="1304" y="-20"/>
      <point x="1050" y="134"/>
    </contour>
    <contour>
      <point x="1562" y="1500" type="line"/>
      <point x="1570" y="1500" type="line"/>
      <point x="518" y="0" type="line"/>
      <point x="510" y="0" type="line"/>
    </contour>
    <contour>
      <point x="470" y="1080" type="curve" smooth="yes"/>
      <point x="470" y="739"/>
      <point x="502" y="646"/>
      <point x="550" y="646" type="curve" smooth="yes"/>
      <point x="598" y="646"/>
      <point x="630" y="739"/>
      <point x="630" y="1080" type="curve" smooth="yes"/>
      <point x="630" y="1421"/>
      <point x="598" y="1513"/>
      <point x="550" y="1513" type="curve" smooth="yes"/>
      <point x="502" y="1513"/>
      <point x="470" y="1421"/>
    </contour>
    <contour>
      <point x="70" y="1080" type="curve" smooth="yes"/>
      <point x="70" y="1366"/>
      <point x="324" y="1520"/>
      <point x="550" y="1520" type="curve" smooth="yes"/>
      <point x="776" y="1520"/>
      <point x="1030" y="1366"/>
      <point x="1030" y="1080" type="curve" smooth="yes"/>
      <point x="1030" y="794"/>
      <point x="736" y="640"/>
      <point x="550" y="640" type="curve" smooth="yes"/>
      <point x="324" y="640"/>
      <point x="70" y="794"/>
    </contour>
  </outline>
</glyph>
<glyph name="uniFB00" format="2">
  <advance width="1521"/>
  <unicode hex="FB00"/>
  <outline>
    <contour>
      <point x="11" y="9" type="line"/>
      <point x="1472" y="9" type="line"/>
      <point x="1472" y="0" type="line"/>
      <point x="11" y="0" type="line"/>
    </contour>
    <contour>
      <point x="11" y="920" type="line"/>
      <point x="1511" y="920" type="line"/>
      <point x="1511" y="911" type="line"/>
      <point x="11" y="911" type="line"/>
    </contour>
    <contour>
      <point x="1076" y="1242" type="curve"/>
      <point x="1050" y="1330"/>
      <point x="914" y="1408"/>
      <point x="806" y="1408" type="curve" smooth="yes"/>
      <point x="646" y="1408"/>
      <point x="551" y="1234"/>
      <point x="551" y="980" type="curve" smooth="yes"/>
      <point x="551" y="0" type="line"/>
      <point x="192" y="0" type="line"/>
      <point x="192" y="924" type="line" smooth="yes"/>
      <point x="192" y="1226"/>
      <point x="446" y="1420"/>
      <point x="786" y="1420" type="curve" smooth="yes"/>
      <point x="968" y="1420"/>
      <point x="1112" y="1296"/>
      <point x="1112" y="1162" type="curve" smooth="yes"/>
      <point x="1112" y="1040"/>
      <point x="1038" y="958"/>
      <point x="918" y="958" type="curve" smooth="yes"/>
      <point x="808" y="958"/>
      <point x="706" y="1026"/>
      <point x="706" y="1146" type="curve" smooth="yes"/>
      <point x="706" y="1266"/>
      <point x="784" y="1344"/>
      <point x="892" y="1344" type="curve" smooth="yes"/>
      <point x="991" y="1344"/>
      <point x="1076" y="1242"/>
    </contour>
    <contour>
      <point x="1723" y="1341" type="curve"/>
      <point x="1704" y="1415"/>
      <point x="1602" y="1508"/>
      <point x="1465" y="1508" type="curve" smooth="yes"/>
      <point x="1305" y="1508"/>
      <point x="1232" y="1334"/>
      <point x="1232" y="1080" type="curve" smooth="yes"/>
      <point x="1232" y="0" type="line"/>
      <point x="872" y="0" type="line"/>
      <point x="872" y="1024" type="line" smooth="yes"/>
      <point x="872" y="1326"/>
      <point x="1126" y="1520"/>
      <point x="1446" y="1520" type="curve" smooth="yes"/>
      <point x="1628" y="1520"/>
      <point x="1752" y="1396"/>
      <point x="1752" y="1262" type="curve" smooth="yes"/>
      <point x="1752" y="1140"/>
      <point x="1678" y="1058"/>
      <point x="1558" y="1058" type="curve" smooth="yes"/>
      <point x="1448" y="1058"/>
      <point x="1345" y="1126"/>
      <point x="1345" y="1246" type="curve" smooth="yes"/>
      <point x="1345" y="1366"/>
      <point x="1439" y="1444"/>
      <point x="1547" y="1444" type="curve" smooth="yes"/>
      <point x="1627" y="1444"/>
      <point x="1697" y="1392"/>
    </contour>
  </outline>
</glyph>
<glyph name="uniFB01" format="2">
  <advance width="2778"/>
  <unicode hex="FB01"/>
  <outline>
    <contour>
      <point x="393.162" y="2097.37" type="line" smooth="yes"/>
      <point x="393.162" y="2756.74"/>
      <point x="911.794" y="3112.63"/>
      <point x="1731.16" y="3112.63" type="curve" smooth="yes"/>
      <point x="2185.79" y="3112.63"/>
      <point x="2481.16" y="2858.63"/>
      <point x="2481.16" y="2584.63" type="curve" smooth="yes"/>
      <point x="2481.16" y="2334.63"/>
      <point x="2330.53" y="2166.63"/>
      <point x="2084.53" y="2166.63" type="curve" smooth="yes"/>
      <point x="1859.16" y="2166.63"/>
      <point x="1650.53" y="2306"/>
      <point x="1650.53" y="2552" type="curve" smooth="yes"/>
      <point x="1650.53" y="2798"/>
      <point x="1836.74" y="2949.37"/>
      <point x="2058.1" y="2949.37" type="curve" smooth="yes"/>
      <point x="2222.72" y="2949.37"/>
      <point x="2351.53" y="2871.91"/>
      <point x="2421.53" y="2731.34" type="curve"/>
      <point x="2326.02" y="2955.38"/>
      <point x="2069.45" y="3092.62"/>
      <point x="1731.16" y="3092.62" type="curve" smooth="yes"/>
      <point x="1280.53" y="3092.62"/>
      <point x="1129.16" y="2732"/>
      <point x="1129.16" y="2212" type="curve" smooth="yes"/>
      <point x="1129.16" y="0" type="line"/>
      <point x="393.162" y="0" type="line"/>
    </contour>
    <contour>
      <point x="23.162" y="18.7508" type="line"/>
      <point x="2768.53" y="18.7508" type="line"/>
      <point x="2768.53" y="0" type="line"/>
      <point x="23.162" y="0" type="line"/>
    </contour>
    <contour>
      <point x="1703.16" y="1865.25" type="line"/>
      <point x="23.162" y="1865.25" type="line"/>
      <point x="23.162" y="1884" type="line"/>
      <point x="2481.16" y="1884" type="line"/>
      <point x="2481.16" y="0" type="line"/>
      <point x="1703.16" y="0" type="line"/>
    </contour>
  </outline>
</glyph>
<glyph name="uniFB02" format="2">
  <advance width="1542"/>
  <unicode hex="FB02"/>
  <outline>
    <contour>
      <point x="11" y="9" type="line"/>
      <point x="1522" y="9" type="line"/>
      <point x="1522" y="0" type="line"/>
      <point x="11" y="0" type="line"/>
    </contour>
    <contour>
      <point x="11" y="920" type="line"/>
      <point x="832" y="920" type="line"/>
      <point x="832" y="911" type="line"/>
      <point x="11" y="911" type="line"/>
    </contour>
    <contour>
      <point x="962" y="1460" type="line"/>
      <point x="1341" y="1540" type="line"/>
      <point x="1341" y="0" type="line"/>
      <point x="962" y="0" type="line"/>
    </contour>
    <contour>
      <point x="1052" y="1323" type="curve"/>
      <point x="1033" y="1408"/>
      <point x="929" y="1507"/>
      <point x="786" y="1507" type="curve" smooth="yes"/>
      <point x="626" y="1507"/>
      <point x="551" y="1334"/>
      <point x="551" y="1080" type="curve" smooth="yes"/>
      <point x="551" y="0" type="line"/>
      <point x="192" y="0" type="line"/>
      <point x="192" y="1024" type="line" smooth="yes"/>
      <point x="192" y="1326"/>
      <point x="446" y="1520"/>
      <point x="766" y="1520" type="curve" smooth="yes"/>
      <point x="948" y="1520"/>
      <point x="1072" y="1396"/>
      <point x="1072" y="1262" type="curve" smooth="yes"/>
      <point x="1072" y="1140"/>
      <point x="998" y="1058"/>
      <point x="878" y="1058" type="curve" smooth="yes"/>
      <point x="768" y="1058"/>
      <point x="666" y="1126"/>
      <point x="666" y="1246" type="curve" smooth="yes"/>
      <point x="666" y="1366"/>
      <point x="744" y="1444"/>
      <point x="852" y="1444" type="curve" smooth="yes"/>
      <point x="982" y="1444"/>
      <point x="1041" y="1337"/>
    </contour>
  </outline>
</glyph>
<glyph name="uniFB03" format="2">
  <advance width="1996"/>
  <unicode hex="FB03"/>
  <outline>
    <contour>
      <point x="832" y="1024" type="line" smooth="yes"/>
      <point x="832" y="1346"/>
      <point x="1086" y="1520"/>
      <point x="1486" y="1520" type="curve" smooth="yes"/>
      <point x="1708" y="1520"/>
      <point x="1852" y="1396"/>
      <point x="1852" y="1262" type="curve" smooth="yes"/>
      <point x="1852" y="1140"/>
      <point x="1778" y="1058"/>
      <point x="1658" y="1058" type="curve" smooth="yes"/>
      <point x="1548" y="1058"/>
      <point x="1446" y="1126"/>
      <point x="1446" y="1246" type="curve" smooth="yes"/>
      <point x="1446" y="1366"/>
      <point x="1532" y="1440"/>
      <point x="1640" y="1440" type="curve" smooth="yes"/>
      <point x="1745" y="1440"/>
      <point x="1795" y="1393"/>
      <point x="1817" y="1337" type="curve"/>
      <point x="1774" y="1440"/>
      <point x="1654" y="1508"/>
      <point x="1486" y="1508" type="curve" smooth="yes"/>
      <point x="1266" y="1508"/>
      <point x="1192" y="1334"/>
      <point x="1192" y="1080" type="curve" smooth="yes"/>
      <point x="1192" y="0" type="line"/>
      <point x="832" y="0" type="line"/>
    </contour>
    <contour>
      <point x="11" y="9" type="line"/>
      <point x="1992" y="9" type="line"/>
      <point x="1992" y="0" type="line"/>
      <point x="11" y="0" type="line"/>
    </contour>
    <contour>
      <point x="192" y="924" type="line" smooth="yes"/>
      <point x="192" y="1224"/>
      <point x="446" y="1420"/>
      <point x="786" y="1420" type="curve" smooth="yes"/>
      <point x="968" y="1420"/>
      <point x="1112" y="1296"/>
      <point x="1112" y="1162" type="curve" smooth="yes"/>
      <point x="1112" y="1040"/>
      <point x="1038" y="958"/>
      <point x="918" y="958" type="curve" smooth="yes"/>
      <point x="808" y="958"/>
      <point x="706" y="1026"/>
      <point x="706" y="1146" type="curve" smooth="yes"/>
      <point x="706" y="1266"/>
      <point x="784" y="1344"/>
      <point x="892" y="1344" type="curve" smooth="yes"/>
      <point x="991" y="1344"/>
      <point x="1059" y="1275"/>
      <point x="1059" y="1275" type="curve"/>
      <point x="1016" y="1346"/>
      <point x="918" y="1407"/>
      <point x="806" y="1407" type="curve" smooth="yes"/>
      <point x="646" y="1407"/>
      <point x="551" y="1234"/>
      <point x="551" y="980" type="curve" smooth="yes"/>
      <point x="551" y="0" type="line"/>
      <point x="192" y="0" type="line"/>
    </contour>
    <contour>
      <point x="1472" y="911" type="line"/>
      <point x="11" y="911" type="line"/>
      <point x="11" y="920" type="line"/>
      <point x="1852" y="920" type="line"/>
      <point x="1852" y="0" type="line"/>
      <point x="1472" y="0" type="line"/>
    </contour>
  </outline>
</glyph>
<glyph name="uniFB04" format="2">
  <advance width="4551"/>
  <unicode hex="FB04"/>
  <outline>
    <contour>
      <point x="23.162" y="18.7508" type="line"/>
      <point x="4509.16" y="18.7508" type="line"/>
      <point x="4509.16" y="0" type="line"/>
      <point x="23.162" y="0" type="line"/>
    </contour>
    <contour>
      <point x="23.162" y="1884" type="line"/>
      <point x="3095.16" y="1884" type="line"/>
      <point x="3095.16" y="1865.25" type="line"/>
      <point x="23.162" y="1865.25" type="line"/>
    </contour>
    <contour>
      <point x="3362.53" y="2990" type="line"/>
      <point x="4140.53" y="3154" type="line"/>
      <point x="4140.53" y="0" type="line"/>
      <point x="3362.53" y="0" type="line"/>
    </contour>
    <contour>
      <point x="2171.75" y="2614.34" type="curve"/>
      <point x="2084.07" y="2760.63"/>
      <point x="1872.51" y="2883.98"/>
      <point x="1650.53" y="2883.98" type="curve" smooth="yes"/>
      <point x="1322.53" y="2883.98"/>
      <point x="1129.16" y="2527.37"/>
      <point x="1129.16" y="2007.37" type="curve" smooth="yes"/>
      <point x="1129.16" y="0" type="line"/>
      <point x="393.162" y="0" type="line"/>
      <point x="393.162" y="1892" type="line" smooth="yes"/>
      <point x="393.162" y="2506"/>
      <point x="913.162" y="2908"/>
      <point x="1609.16" y="2908" type="curve" smooth="yes"/>
      <point x="1981.79" y="2908"/>
      <point x="2277.16" y="2654"/>
      <point x="2277.16" y="2380" type="curve" smooth="yes"/>
      <point x="2277.16" y="2130"/>
      <point x="2125.16" y="1962"/>
      <point x="1879.16" y="1962" type="curve" smooth="yes"/>
      <point x="1653.79" y="1962"/>
      <point x="1445.16" y="2101.37"/>
      <point x="1445.16" y="2347.37" type="curve" smooth="yes"/>
      <point x="1445.16" y="2593.37"/>
      <point x="1605.16" y="2752.63"/>
      <point x="1826.53" y="2752.63" type="curve" smooth="yes"/>
      <point x="2002.1" y="2752.63"/>
      <point x="2164.79" y="2618.77"/>
    </contour>
    <contour>
      <point x="3525.64" y="2745.72" type="curve"/>
      <point x="3460.28" y="2962"/>
      <point x="3204.31" y="3093.25"/>
      <point x="3001.16" y="3093.25" type="curve" smooth="yes"/>
      <point x="2673.16" y="3093.25"/>
      <point x="2523.16" y="2732"/>
      <point x="2523.16" y="2212" type="curve" smooth="yes"/>
      <point x="2523.16" y="0" type="line"/>
      <point x="1785.16" y="0" type="line"/>
      <point x="1785.16" y="2097.37" type="line" smooth="yes"/>
      <point x="1785.16" y="2715.37"/>
      <point x="2305.79" y="3112.63"/>
      <point x="2961.16" y="3112.63" type="curve" smooth="yes"/>
      <point x="3333.79" y="3112.63"/>
      <point x="3587.16" y="2858.63"/>
      <point x="3587.16" y="2584.63" type="curve" smooth="yes"/>
      <point x="3587.16" y="2334.63"/>
      <point x="3436.53" y="2166.63"/>
      <point x="3190.53" y="2166.63" type="curve" smooth="yes"/>
      <point x="2965.16" y="2166.63"/>
      <point x="2755.16" y="2306"/>
      <point x="2755.16" y="2552" type="curve" smooth="yes"/>
      <point x="2755.16" y="2798"/>
      <point x="2915.79" y="2957.37"/>
      <point x="3137.16" y="2957.37" type="curve" smooth="yes"/>
      <point x="3405.75" y="2957.37"/>
      <point x="3504.78" y="2777.98"/>
    </contour>
  </outline>
</glyph>
<glyph name="J.alt" format="2">
  <advance width="2972"/>
  <outline>
    <contour>
      <point x="1090" y="3072" type="line"/>
      <point x="2912" y="3072" type="line"/>
      <point x="2912" y="3053.25" type="line"/>
      <point x="1090" y="3053.25" type="line"/>
    </contour>
    <contour>
      <point x="1622" y="3072" type="line"/>
      <point x="2502.63" y="3072" type="line"/>
      <point x="2502.63" y="696" type="line"/>
      <point x="2256.63" y="204"/>
      <point x="1892" y="-122.632"/>
      <point x="1110" y="-122.632" type="curve" smooth="yes"/>
      <point x="508" y="-122.632"/>
      <point x="61.3676" y="307.368"/>
      <point x="61.3676" y="758" type="curve" smooth="yes"/>
      <point x="61.3676" y="1134.63"/>
      <point x="336" y="1352"/>
      <point x="622.632" y="1352" type="curve" smooth="yes"/>
      <point x="888.632" y="1352"/>
      <point x="1098" y="1154.63"/>
      <point x="1098" y="864" type="curve" smooth="yes"/>
      <point x="1098" y="598"/>
      <point x="893.368" y="376.632"/>
      <point x="594" y="376.632" type="curve" smooth="yes"/>
      <point x="325.707" y="376.632"/>
      <point x="165.075" y="509.249"/>
      <point x="96.7508" y="637.66" type="curve"/>
      <point x="179.178" y="215.059"/>
      <point x="613.794" y="-88.514"/>
      <point x="1028" y="-88.514" type="curve" smooth="yes"/>
      <point x="1400.63" y="-88.514"/>
      <point x="1622" y="204.632"/>
      <point x="1622" y="778" type="curve" smooth="yes"/>
    </contour>
  </outline>
</glyph>
<glyph name="fj.lig" format="2">
  <advance width="2772"/>
  <outline>
    <contour>
      <point x="40.6324" y="18.7508" type="line"/>
      <point x="1516" y="18.7508" type="line"/>
      <point x="1516" y="0" type="line"/>
      <point x="40.6324" y="0" type="line"/>
    </contour>
    <contour>
      <point x="2498.63" y="-49.3676" type="line" smooth="yes"/>
      <point x="2498.63" y="-586"/>
      <point x="1978" y="-1064.63"/>
      <point x="1364" y="-1064.63" type="curve" smooth="yes"/>
      <point x="950" y="-1064.63"/>
      <point x="614" y="-872.735"/>
      <point x="614" y="-557.368" type="curve" smooth="yes"/>
      <point x="614" y="-307.368"/>
      <point x="806.632" y="-118.632"/>
      <point x="1052.63" y="-118.632" type="curve" smooth="yes"/>
      <point x="1278" y="-118.632"/>
      <point x="1486.63" y="-258"/>
      <point x="1486.63" y="-504" type="curve" smooth="yes"/>
      <point x="1486.63" y="-750"/>
      <point x="1291.69" y="-897.368"/>
      <point x="1058.31" y="-897.368" type="curve" smooth="yes"/>
      <point x="859.928" y="-897.368"/>
      <point x="748.284" y="-798.885"/>
      <point x="684.181" y="-689.682" type="curve"/>
      <point x="733.682" y="-880.648"/>
      <point x="982.031" y="-1036.62"/>
      <point x="1302.63" y="-1036.62" type="curve" smooth="yes"/>
      <point x="1794.63" y="-1036.62"/>
      <point x="1720" y="-438"/>
      <point x="1720" y="82" type="curve" smooth="yes"/>
      <point x="1720" y="1865.25" type="line"/>
      <point x="40.6324" y="1865.25" type="line"/>
      <point x="40.6324" y="1884" type="line"/>
      <point x="2498.63" y="1884" type="line"/>
    </contour>
    <contour>
      <point x="2374.25" y="2833.21" type="curve"/>
      <point x="2290.6" y="2955.47"/>
      <point x="2086.93" y="3089.25"/>
      <point x="1748.63" y="3089.25" type="curve" smooth="yes"/>
      <point x="1298" y="3089.25"/>
      <point x="1146.63" y="2732"/>
      <point x="1146.63" y="2212" type="curve" smooth="yes"/>
      <point x="1146.63" y="0" type="line"/>
      <point x="410" y="0" type="line"/>
      <point x="410" y="2097.37" type="line" smooth="yes"/>
      <point x="410" y="2756.74"/>
      <point x="929.265" y="3112.63"/>
      <point x="1748.63" y="3112.63" type="curve" smooth="yes"/>
      <point x="2203.26" y="3112.63"/>
      <point x="2498.63" y="2858.63"/>
      <point x="2498.63" y="2584.63" type="curve" smooth="yes"/>
      <point x="2498.63" y="2334.63"/>
      <point x="2347.37" y="2166.63"/>
      <point x="2101.37" y="2166.63" type="curve" smooth="yes"/>
      <point x="1876" y="2166.63"/>
      <point x="1667.37" y="2306"/>
      <point x="1667.37" y="2552" type="curve" smooth="yes"/>
      <point x="1667.37" y="2798"/>
      <point x="1854.21" y="2949.37"/>
      <point x="2075.57" y="2949.37" type="curve" smooth="yes"/>
      <point x="2215.98" y="2949.37"/>
      <point x="2317.32" y="2892.44"/>
    </contour>
  </outline>
</glyph>
<glyph name="four.alt" format="2">
  <advance width="2928"/>
  <outline>
    <contour>
      <point x="2662" y="18.7508" type="line"/>
      <point x="2662" y="0" type="line"/>
      <point x="1085.37" y="0" type="line"/>
      <point x="1085.37" y="18.7508" type="line"/>
    </contour>
    <contour>
      <point x="2355.37" y="2040" type="curve"/>
      <point x="2355.37" y="-4" type="line"/>
      <point x="1474.63" y="-4" type="line"/>
      <point x="1474.63" y="1753.37" type="line"/>
      <point x="1720.63" y="1753.37"/>
      <point x="2191.37" y="1917.37"/>
    </contour>
    <contour>
      <point x="97.6044" y="807.692" type="curve"/>
      <point x="2724" y="807.692" type="line"/>
      <point x="2724" y="788.308" type="line"/>
      <point x="61.3676" y="788.308" type="line"/>
      <point x="634.735" y="1607.68"/>
      <point x="1228.63" y="2458"/>
      <point x="1310.63" y="3072" type="curve"/>
      <point x="2286" y="3072" type="line"/>
      <point x="2208" y="2273.37"/>
      <point x="675.604" y="1602.32"/>
    </contour>
  </outline>
</glyph>
